<?xml version="1.0" encoding="UTF-8" standalone="no"?>
<!-- Created with Inkscape (http://www.inkscape.org/) -->

<svg
   width="4in"
   height="3.5in"
   viewBox="0 0 101.6 88.9"
   version="1.1"
   id="svg5"
   inkscape:version="1.1.2 (b8e25be8, 2022-02-05)"
   sodipodi:docname="feuilles_site.svg"
   xmlns:inkscape="http://www.inkscape.org/namespaces/inkscape"
   xmlns:sodipodi="http://sodipodi.sourceforge.net/DTD/sodipodi-0.dtd"
   xmlns="http://www.w3.org/2000/svg"
   xmlns:svg="http://www.w3.org/2000/svg">
  <sodipodi:namedview
     id="namedview7"
     pagecolor="#ffffff"
     bordercolor="#666666"
     borderopacity="1.0"
     inkscape:pageshadow="2"
     inkscape:pageopacity="0.0"
     inkscape:pagecheckerboard="0"
     inkscape:document-units="mm"
     showgrid="false"
     inkscape:zoom="0.25374336"
     inkscape:cx="368.48255"
     inkscape:cy="597.05996"
     inkscape:window-width="1280"
     inkscape:window-height="747"
     inkscape:window-x="0"
     inkscape:window-y="25"
     inkscape:window-maximized="0"
     inkscape:current-layer="layer2"
     inkscape:snap-global="false"
     units="in"
     width="7.5in" />
  <defs
     id="defs2">
    <inkscape:path-effect
       effect="bspline"
       id="path-effect3846"
       is_visible="true"
       lpeversion="1"
       weight="33.333333"
       steps="2"
       helper_size="0"
       apply_no_weight="true"
       apply_with_weight="true"
       only_selected="false" />
    <inkscape:path-effect
       effect="bspline"
       id="path-effect3509"
       is_visible="true"
       lpeversion="1"
       weight="33.333333"
       steps="2"
       helper_size="0"
       apply_no_weight="true"
       apply_with_weight="true"
       only_selected="false" />
    <inkscape:path-effect
       effect="bspline"
       id="path-effect2979"
       is_visible="true"
       lpeversion="1"
       weight="33.333333"
       steps="2"
       helper_size="0"
       apply_no_weight="true"
       apply_with_weight="true"
       only_selected="false" />
    <inkscape:path-effect
       effect="bspline"
       id="path-effect2719"
       is_visible="true"
       lpeversion="1"
       weight="33.333333"
       steps="2"
       helper_size="0"
       apply_no_weight="true"
       apply_with_weight="true"
       only_selected="false" />
    <inkscape:path-effect
       effect="bspline"
       id="path-effect2287"
       is_visible="true"
       lpeversion="1"
       weight="33.333333"
       steps="2"
       helper_size="0"
       apply_no_weight="true"
       apply_with_weight="true"
       only_selected="false" />
    <inkscape:path-effect
       effect="bspline"
       id="path-effect1983"
       is_visible="true"
       lpeversion="1"
       weight="33.333333"
       steps="2"
       helper_size="0"
       apply_no_weight="true"
       apply_with_weight="true"
       only_selected="false" />
    <inkscape:path-effect
       effect="bspline"
       id="path-effect1590"
       is_visible="true"
       lpeversion="1"
       weight="33.333333"
       steps="2"
       helper_size="0"
       apply_no_weight="true"
       apply_with_weight="true"
       only_selected="false" />
    <inkscape:path-effect
       effect="bspline"
       id="path-effect1586"
       is_visible="true"
       lpeversion="1"
       weight="33.333333"
       steps="2"
       helper_size="0"
       apply_no_weight="true"
       apply_with_weight="true"
       only_selected="false" />
    <inkscape:path-effect
       effect="bspline"
       id="path-effect1582"
       is_visible="true"
       lpeversion="1"
       weight="33.333333"
       steps="2"
       helper_size="0"
       apply_no_weight="true"
       apply_with_weight="true"
       only_selected="false" />
    <inkscape:path-effect
       effect="bspline"
       id="path-effect1578"
       is_visible="true"
       lpeversion="1"
       weight="33.333333"
       steps="2"
       helper_size="0"
       apply_no_weight="true"
       apply_with_weight="true"
       only_selected="false" />
    <inkscape:path-effect
       effect="bspline"
       id="path-effect1574"
       is_visible="true"
       lpeversion="1"
       weight="33.333333"
       steps="2"
       helper_size="0"
       apply_no_weight="true"
       apply_with_weight="true"
       only_selected="false" />
    <inkscape:path-effect
       effect="bspline"
       id="path-effect1570"
       is_visible="true"
       lpeversion="1"
       weight="33.333333"
       steps="2"
       helper_size="0"
       apply_no_weight="true"
       apply_with_weight="true"
       only_selected="false" />
    <inkscape:path-effect
       effect="bspline"
       id="path-effect1566"
       is_visible="true"
       lpeversion="1"
       weight="33.333333"
       steps="2"
       helper_size="0"
       apply_no_weight="true"
       apply_with_weight="true"
       only_selected="false" />
    <inkscape:path-effect
       effect="bspline"
       id="path-effect1562"
       is_visible="true"
       lpeversion="1"
       weight="33.333333"
       steps="2"
       helper_size="0"
       apply_no_weight="true"
       apply_with_weight="true"
       only_selected="false" />
    <inkscape:path-effect
       effect="bspline"
       id="path-effect1558"
       is_visible="true"
       lpeversion="1"
       weight="33.333333"
       steps="2"
       helper_size="0"
       apply_no_weight="true"
       apply_with_weight="true"
       only_selected="false" />
    <inkscape:path-effect
       effect="bspline"
       id="path-effect1554"
       is_visible="true"
       lpeversion="1"
       weight="33.333333"
       steps="2"
       helper_size="0"
       apply_no_weight="true"
       apply_with_weight="true"
       only_selected="false" />
    <inkscape:path-effect
       effect="bspline"
       id="path-effect1550"
       is_visible="true"
       lpeversion="1"
       weight="33.333333"
       steps="2"
       helper_size="0"
       apply_no_weight="true"
       apply_with_weight="true"
       only_selected="false" />
    <inkscape:path-effect
       effect="bspline"
       id="path-effect1433"
       is_visible="true"
       lpeversion="1"
       weight="33.333333"
       steps="2"
       helper_size="0"
       apply_no_weight="true"
       apply_with_weight="true"
       only_selected="false" />
    <inkscape:path-effect
       effect="bspline"
       id="path-effect1429"
       is_visible="true"
       lpeversion="1"
       weight="33.333333"
       steps="2"
       helper_size="0"
       apply_no_weight="true"
       apply_with_weight="true"
       only_selected="false" />
    <inkscape:path-effect
       effect="bspline"
       id="path-effect1570-7"
       is_visible="true"
       lpeversion="1"
       weight="33.333333"
       steps="2"
       helper_size="0"
       apply_no_weight="true"
       apply_with_weight="true"
       only_selected="false" />
    <inkscape:path-effect
       effect="bspline"
       id="path-effect1574-4"
       is_visible="true"
       lpeversion="1"
       weight="33.333333"
       steps="2"
       helper_size="0"
       apply_no_weight="true"
       apply_with_weight="true"
       only_selected="false" />
    <inkscape:path-effect
       effect="bspline"
       id="path-effect1550-1"
       is_visible="true"
       lpeversion="1"
       weight="33.333333"
       steps="2"
       helper_size="0"
       apply_no_weight="true"
       apply_with_weight="true"
       only_selected="false" />
    <inkscape:path-effect
       effect="bspline"
       id="path-effect1983-9"
       is_visible="true"
       lpeversion="1"
       weight="33.333333"
       steps="2"
       helper_size="0"
       apply_no_weight="true"
       apply_with_weight="true"
       only_selected="false" />
    <inkscape:path-effect
       effect="bspline"
       id="path-effect1983-8"
       is_visible="true"
       lpeversion="1"
       weight="33.333333"
       steps="2"
       helper_size="0"
       apply_no_weight="true"
       apply_with_weight="true"
       only_selected="false" />
    <inkscape:path-effect
       effect="bspline"
       id="path-effect2287-8"
       is_visible="true"
       lpeversion="1"
       weight="33.333333"
       steps="2"
       helper_size="0"
       apply_no_weight="true"
       apply_with_weight="true"
       only_selected="false" />
    <inkscape:path-effect
       effect="bspline"
       id="path-effect2719-0"
       is_visible="true"
       lpeversion="1"
       weight="33.333333"
       steps="2"
       helper_size="0"
       apply_no_weight="true"
       apply_with_weight="true"
       only_selected="false" />
    <inkscape:path-effect
       effect="bspline"
       id="path-effect2979-2"
       is_visible="true"
       lpeversion="1"
       weight="33.333333"
       steps="2"
       helper_size="0"
       apply_no_weight="true"
       apply_with_weight="true"
       only_selected="false" />
    <inkscape:path-effect
       effect="bspline"
       id="path-effect3509-5"
       is_visible="true"
       lpeversion="1"
       weight="33.333333"
       steps="2"
       helper_size="0"
       apply_no_weight="true"
       apply_with_weight="true"
       only_selected="false" />
    <inkscape:path-effect
       effect="bspline"
       id="path-effect3846-2"
       is_visible="true"
       lpeversion="1"
       weight="33.333333"
       steps="2"
       helper_size="0"
       apply_no_weight="true"
       apply_with_weight="true"
       only_selected="false" />
  </defs>
  <g
     inkscape:groupmode="layer"
     id="layer2"
     inkscape:label="f1"
     style="display:inline">
    <path
       id="path2717-0"
       style="display:inline;fill:#c5baaf;fill-opacity:1;stroke:none;stroke-width:0.223758px;stroke-linecap:butt;stroke-linejoin:miter;stroke-opacity:1"
       d="m 65.306241,58.505467 c 0.0877,-0.088 0.16727,-0.17962 0.2369,-0.2749 0.55742,-0.76198 0.47249,-1.74859 0.38758,-2.73568 -0.98676,-0.0887 -1.97304,-0.1775 -2.73716,0.37696 -0.76413,0.55446 -1.30639,1.75204 -1.52683,2.51468 -0.20509,0.70951 -0.13182,1.04253 -0.0391,1.34975 l -0.0238,0.0238 c 0.0117,0.003 0.0231,0.007 0.0346,0.0106 0.003,0.0118 0.007,0.0232 0.0104,0.0347 l 0.0238,-0.0238 c 0.30676,0.0939 0.63984,0.1684 1.34989,-0.0338 0.66806,-0.19031 1.67016,-0.6259 2.28363,-1.24219 z" />
  </g>
  <g
     inkscape:groupmode="layer"
     id="layer3"
     inkscape:label="f2"
     style="display:inline">
    <path
       id="path1981-9"
       style="display:inline;fill:#c5baaf;fill-opacity:1;stroke:none;stroke-width:0.223758px;stroke-linecap:butt;stroke-linejoin:miter;stroke-opacity:1"
       d="m 63.583911,63.408427 c 0.13305,-0.25942 0.28392,-0.49993 0.45239,-0.70927 0.59901,-0.74427 1.42205,-1.09627 1.93607,-1.38062 0.36687,-0.20296 0.57616,-0.37109 0.74035,-0.52952 l 0.11336,-0.2238 c -0.009,0.0445 -0.0176,0.0896 -0.026,0.13511 0.0322,-0.0332 0.0639,-0.0665 0.0951,-0.0994 l -0.1165,0.22118 c -0.0343,0.22575 -0.0507,0.49381 -0.004,0.911 0.0656,0.58375 0.25517,1.45888 -0.005,2.37811 -0.26034,0.91925 -0.97045,1.88292 -1.69136,2.58087 -0.72051,0.69816 -1.45124,1.13083 -2.18222,1.56386 -0.0699,-0.84674 -0.13989,-1.69307 0.0125,-2.6847 0.10954,-0.71275 0.334,-1.50047 0.67394,-2.16348 z" />
  </g>
  <g
     inkscape:groupmode="layer"
     id="layer5"
     inkscape:label="f3"
     style="display:inline">
    <path
       id="path1981-5"
       style="display:inline;fill:#c5baaf;fill-opacity:1;stroke:none;stroke-width:0.161329px;stroke-linecap:butt;stroke-linejoin:miter;stroke-opacity:1"
       d="m 57.368471,59.962107 c -0.20138,-6.4e-4 -0.39681,0.0172 -0.57868,0.0575 -0.64667,0.14344 -1.12362,0.57217 -1.46108,0.81763 -0.24086,0.1752 -0.41038,0.25708 -0.55967,0.31213 l -0.17327,-0.002 c 0.0301,0.009 0.0606,0.0191 0.0911,0.0293 -0.0306,0.0102 -0.061,0.0198 -0.0911,0.0293 l 0.17266,-0.002 c 0.14943,0.0551 0.3191,0.1367 0.56028,0.31213 0.33746,0.24547 0.81441,0.67452 1.46108,0.81796 0.64666,0.14346 1.46318,0.002 2.12006,-0.23943 0.65687,-0.2406 1.15407,-0.57975 1.65155,-0.91894 -0.49748,-0.33919 -0.99468,-0.67833 -1.65155,-0.91895 -0.47213,-0.17294 -1.02672,-0.29494 -1.54138,-0.29666 z" />
  </g>
  <g
     inkscape:groupmode="layer"
     id="layer6"
     inkscape:label="f4"
     style="display:inline">
    <path
       id="path2717-0-6"
       style="display:inline;fill:#c5baaf;fill-opacity:1;stroke:none;stroke-width:0.264583px;stroke-linecap:butt;stroke-linejoin:miter;stroke-opacity:1"
       d="m 54.296601,68.661107 c -0.14681,-0.005 -0.2896,-0.0192 -0.42676,-0.0449 -1.09739,-0.20485 -1.82342,-1.12353 -2.54986,-2.0426 0.77813,-0.87574 1.55583,-1.75113 2.66319,-1.89248 1.10736,-0.14134 2.54454,0.45102 3.35221,0.92941 0.75139,0.44505 0.95803,0.79127 1.127,1.13104 l 0.0398,10e-4 c -0.007,0.0124 -0.0144,0.0245 -0.0212,0.0371 0.007,0.0129 0.0129,0.0254 0.0191,0.0383 l -0.0398,-0.001 c -0.18819,0.32936 -0.41475,0.66336 -1.19022,1.06432 -0.72963,0.37721 -1.9457,0.81373 -2.97337,0.77977 z" />
  </g>
  <g
     inkscape:groupmode="layer"
     id="layer7"
     inkscape:label="f5"
     style="display:inline">
    <path
       id="path1981-1"
       style="display:inline;fill:#c5baaf;fill-opacity:1;stroke:none;stroke-width:0.223758px;stroke-linecap:butt;stroke-linejoin:miter;stroke-opacity:1"
       d="m 50.284131,63.540257 c 0.26821,-0.11431 0.51882,-0.24775 0.73957,-0.40095 0.78492,-0.54468 1.19444,-1.34066 1.51458,-1.8332 0.22848,-0.35154 0.41104,-0.54837 0.58073,-0.7009 l 0.23115,-0.0975 c -0.045,0.006 -0.0906,0.0112 -0.13662,0.0163 0.0354,-0.0298 0.0709,-0.059 0.1059,-0.0878 l -0.229,0.10023 c -0.22764,0.0182 -0.49616,0.0155 -0.90897,-0.0609 -0.57763,-0.10683 -1.43709,-0.35809 -2.37249,-0.16366 -0.93541,0.19442 -1.94692,0.83462 -2.69441,1.50387 -0.74754,0.66914 -1.23101,1.36732 -1.71482,2.06572 0.83964,0.12981 1.67887,0.25972 2.67882,0.17808 0.71871,-0.0587 1.52039,-0.22665 2.20586,-0.51867 z" />
  </g>
  <g
     inkscape:groupmode="layer"
     id="layer8"
     inkscape:label="f6"
     style="display:inline">
    <path
       id="path2977-7"
       style="display:inline;fill:#c5baaf;fill-opacity:1;stroke:none;stroke-width:0.223758px;stroke-linecap:butt;stroke-linejoin:miter;stroke-opacity:1"
       d="m 44.529781,68.201327 c -0.029,0.27083 -0.0873,0.54531 -0.19805,0.8123 -0.29537,0.71199 -0.96728,1.37078 -1.63968,2.02947 -0.39876,-0.85265 -0.79748,-1.70512 -0.74079,-2.43753 0.0567,-0.73242 0.56838,-1.34506 0.97607,-1.81731 0.12027,-0.1393 0.1673,-0.52764 0.22614,-0.67469 0.0845,-0.21103 0.33816,-1.48353 0.23584,-0.95412 l 0.21707,-1.61876 c 0.3785,0.63133 0.75726,1.26289 0.90049,1.80151 0.14336,0.53862 0.0506,0.98334 0.0448,1.5887 -0.003,0.37836 0.0269,0.81907 -0.0219,1.27041 z"
       sodipodi:nodetypes="sscssscccsss" />
  </g>
  <g
     inkscape:groupmode="layer"
     id="layer9"
     inkscape:label="f7"
     style="display:inline">
    <path
       id="path2977-9"
       style="display:inline;fill:#c5baaf;fill-opacity:1;stroke:none;stroke-width:0.145095px;stroke-linecap:butt;stroke-linejoin:miter;stroke-opacity:1"
       d="m 42.101831,60.664417 c -0.17661,-0.002 -0.35743,-0.0219 -0.53674,-0.0765 -0.47814,-0.14568 -0.94571,-0.53773 -1.41326,-0.93009 0.5251,-0.31117 1.05008,-0.6223 1.52633,-0.63195 0.47626,-0.01 0.90395,0.2819 1.23445,0.51519 0.0975,0.0688 0.35109,0.0747 0.44971,0.10335 0.14152,0.0412 0.97873,0.12476 0.63064,0.092 l 1.0584,0.0379 c -0.38355,0.28413 -0.76723,0.56843 -1.10579,0.69488 -0.33856,0.12651 -0.63142,0.0947 -1.02247,0.12922 -0.24441,0.0216 -0.5269,0.069 -0.82126,0.0661 z"
       sodipodi:nodetypes="sscssscccsss" />
  </g>
  <g
     inkscape:groupmode="layer"
     id="layer10"
     inkscape:label="f8"
     style="display:inline">
    <path
       id="path1981"
       style="display:inline;fill:#c5baaf;fill-opacity:1;stroke:none;stroke-width:0.223758px;stroke-linecap:butt;stroke-linejoin:miter;stroke-opacity:1"
       d="m 38.089701,60.627827 c -0.29155,-8.5e-4 -0.57448,0.0228 -0.83779,0.0764 -0.93618,0.1906 -1.62666,0.76028 -2.11521,1.08645 -0.3487,0.2328 -0.59413,0.34158 -0.81025,0.41474 l -0.25086,-0.002 c 0.0436,0.0125 0.0877,0.0255 0.13198,0.0389 -0.0443,0.0134 -0.0884,0.0263 -0.13198,0.0389 l 0.24998,-0.002 c 0.21633,0.0731 0.46198,0.18164 0.81113,0.41474 0.48855,0.32617 1.17903,0.89628 2.11521,1.08689 0.93619,0.19061 2.11829,0.002 3.06926,-0.31816 0.95097,-0.31971 1.67076,-0.77035 2.39098,-1.22105 -0.72022,-0.45071 -1.44001,-0.90134 -2.39098,-1.22106 -0.68352,-0.2298 -1.48639,-0.39192 -2.23147,-0.3942 z" />
  </g>
  <g
     inkscape:groupmode="layer"
     id="layer11"
     inkscape:label="f9"
     style="display:inline">
    <path
       id="path3507-6"
       style="display:inline;fill:#c5baaf;fill-opacity:1;stroke:none;stroke-width:0.223758px;stroke-linecap:butt;stroke-linejoin:miter;stroke-opacity:1"
       d="m 35.477761,54.829687 c 0.2905,0.66126 0.94481,1.06535 1.57923,1.54812 0.75191,0.57216 1.47573,1.25501 2.19982,1.93763 -0.002,-0.98564 -0.003,-1.97127 0.10518,-2.90395 0.10804,-0.93266 0.32553,-1.81249 -0.20497,-2.57111 -0.53053,-0.75861 -1.80867,-1.39624 -3.08701,-2.03388 -0.44145,1.35861 -0.88278,2.7171 -0.7137,3.62724 0.0265,0.1422 0.0676,0.27352 0.12143,0.39595 z" />
  </g>
  <g
     inkscape:groupmode="layer"
     id="layer12"
     inkscape:label="f10"
     style="display:inline">
    <path
       id="path3507-6-3"
       style="display:inline;fill:#c5baaf;fill-opacity:1;stroke:none;stroke-width:0.223758px;stroke-linecap:butt;stroke-linejoin:miter;stroke-opacity:1"
       d="m 31.664141,60.620347 c -0.2905,0.66126 -0.94481,1.06535 -1.57923,1.54812 -0.75191,0.57216 -1.47573,1.25501 -2.19982,1.93763 0.002,-0.98564 0.003,-1.97127 -0.10518,-2.90395 -0.10804,-0.93266 -0.32553,-1.81249 0.20497,-2.57111 0.53053,-0.75861 1.80867,-1.39624 3.08701,-2.03388 0.44145,1.35861 0.88278,2.7171 0.7137,3.62724 -0.0265,0.1422 -0.0676,0.27352 -0.12143,0.39595 z" />
  </g>
  <g
     inkscape:groupmode="layer"
     id="layer13"
     inkscape:label="f11"
     style="display:inline">
    <path
       id="path2977"
       style="display:inline;fill:#c5baaf;fill-opacity:1;stroke:none;stroke-width:0.223758px;stroke-linecap:butt;stroke-linejoin:miter;stroke-opacity:1"
       d="m 30.440331,51.772327 c 0.029,0.27083 0.0873,0.54531 0.19805,0.8123 0.29537,0.71199 0.96728,1.37078 1.63968,2.02947 0.39876,-0.85265 0.79748,-1.70512 0.74079,-2.43753 -0.0567,-0.73242 -0.56838,-1.34506 -0.97607,-1.81731 -0.12027,-0.1393 -0.1673,-0.52764 -0.22614,-0.67469 -0.0845,-0.21103 -0.33816,-1.48353 -0.23584,-0.95412 l -0.21707,-1.61876 c -0.3785,0.63133 -0.75726,1.26289 -0.90049,1.80151 -0.14336,0.53862 -0.0506,0.98334 -0.0448,1.5887 0.003,0.37836 -0.0269,0.81907 0.0219,1.27041 z"
       sodipodi:nodetypes="sscssscccsss" />
  </g>
  <g
     inkscape:groupmode="layer"
     id="layer14"
     inkscape:label="f12"
     style="display:inline">
    <path
       id="path3507-0-9"
       style="display:inline;fill:#c5baaf;fill-opacity:1;stroke:none;stroke-width:0.167484px;stroke-linecap:butt;stroke-linejoin:miter;stroke-opacity:1"
       d="m 23.074611,49.970257 c 0.50568,0.2283 1.07945,0.13818 1.68316,0.10139 0.71551,-0.0436 1.47306,-0.012 2.23064,0.0194 -0.51397,-0.54842 -1.02807,-1.0967 -1.45372,-1.6683 -0.42567,-0.57159 -0.76302,-1.16648 -1.45267,-1.33343 -0.68966,-0.16688 -1.73149,0.0937 -2.77345,0.35453 0.46229,0.96953 0.92459,1.93891 1.49241,2.36442 0.0887,0.0665 0.17998,0.11977 0.27365,0.16198 z" />
  </g>
  <g
     inkscape:groupmode="layer"
     id="layer15"
     inkscape:label="f13"
     style="display:inline">
    <path
       id="path3507-0"
       style="display:inline;fill:#c5baaf;fill-opacity:1;stroke:none;stroke-width:0.167484px;stroke-linecap:butt;stroke-linejoin:miter;stroke-opacity:1"
       d="m 35.061171,44.442207 c 0.0744,0.54982 -0.1758,1.07397 -0.38344,1.64204 -0.24607,0.67328 -0.43211,1.40831 -0.61839,2.1433 -0.37883,-0.64917 -0.75749,-1.29842 -1.18375,-1.86957 -0.42625,-0.57115 -0.90005,-1.06432 -0.86313,-1.77293 0.037,-0.7086 0.58426,-1.632639 1.1317,-2.556761 0.79716,0.71989 1.59418,1.439733 1.83984,2.105411 0.0384,0.10402 0.0634,0.20669 0.0771,0.30851 z" />
  </g>
  <g
     inkscape:groupmode="layer"
     id="layer16"
     inkscape:label="f14"
     style="display:inline">
    <path
       id="path3844-4-2"
       style="display:inline;fill:#c5baaf;fill-opacity:1;stroke:none;stroke-width:0.203789px;stroke-linecap:butt;stroke-linejoin:miter;stroke-opacity:1"
       d="m 28.619941,40.504132 c 0.67642,-0.70473 1.57897,-0.99275 2.31126,-1.30162 0.80806,-0.34083 1.40866,-0.70695 2.00931,-1.07305 -0.33403,0.61334 -0.66819,1.22654 -0.9543,2.05138 -0.2861,0.82484 -0.52434,1.86144 -1.34777,2.61563 -0.82346,0.75417 -2.23199,1.226255 -3.64044,1.698385 0.36471,-1.440015 0.72936,-2.880115 1.41939,-3.758005 0.0643,-0.0826 0.13261,-0.15977 0.20234,-0.23291 z" />
  </g>
  <g
     inkscape:groupmode="layer"
     id="layer17"
     inkscape:label="f15"
     style="display:inline">
    <path
       id="path3844-4-2-2"
       style="display:inline;fill:#c5baaf;fill-opacity:1;stroke:none;stroke-width:0.203789px;stroke-linecap:butt;stroke-linejoin:miter;stroke-opacity:1"
       d="m 26.679281,33.047043 c -0.67642,-0.70473 -1.57897,-0.99275 -2.31126,-1.30162 -0.80806,-0.34083 -1.40866,-0.70695 -2.00931,-1.07305 0.33403,0.61334 0.66819,1.22654 0.9543,2.05138 0.2861,0.82484 0.52434,1.86144 1.34777,2.61563 0.82346,0.75417 2.23199,1.22626 3.64044,1.69839 -0.36471,-1.44002 -0.72936,-2.88012 -1.41939,-3.75801 -0.0643,-0.0826 -0.13261,-0.15977 -0.20234,-0.23291 z" />
  </g>
  <g
     inkscape:groupmode="layer"
     id="layer18"
     inkscape:label="f16"
     style="display:inline">
    <path
       id="path3844-5"
       style="display:inline;fill:#c5baaf;fill-opacity:1;stroke:none;stroke-width:0.223758px;stroke-linecap:butt;stroke-linejoin:miter;stroke-opacity:1"
       d="m 33.543481,37.421822 c 0.79752,0.744335 1.80976,1.021988 2.63702,1.329747 0.91285,0.339583 1.60032,0.715725 2.28784,1.091809 -0.41497,-0.658573 -0.83009,-1.316986 -1.20938,-2.209564 -0.3793,-0.892579 -0.72301,-2.01945 -1.68564,-2.811788 -0.96263,-0.792338 -2.54412,-1.250429 -4.12551,-1.708604 0.51446,1.563981 1.02884,3.128071 1.85512,4.061734 0.0775,0.08754 0.15806,0.169648 0.24055,0.246657 z" />
  </g>
  <g
     inkscape:groupmode="layer"
     id="layer19"
     inkscape:label="f17"
     style="display:inline">
    <path
       id="path2717-1"
       style="display:inline;fill:#c5baaf;fill-opacity:1;stroke:none;stroke-width:0.223758px;stroke-linecap:butt;stroke-linejoin:miter;stroke-opacity:1"
       d="m 34.487271,28.991698 c 0.084,0.0915 0.15972,0.18638 0.22538,0.28445 0.52551,0.7843 0.39998,1.76658 0.27442,2.74933 -0.98957,0.048 -1.97868,0.096 -2.71928,-0.48952 -0.74061,-0.58549 -1.23303,-1.80441 -1.42183,-2.5755 -0.17565,-0.71737 -0.0887,-1.04708 0.0166,-1.35021 l -0.0228,-0.0247 c 0.0118,-0.003 0.0233,-0.006 0.035,-0.009 0.004,-0.0116 0.008,-0.0229 0.0118,-0.0342 l 0.0228,0.0247 c 0.31038,-0.0812 0.64624,-0.14189 1.34735,0.0895 0.65964,0.21769 1.64294,0.69423 2.23047,1.3353 z" />
  </g>
  <g
     inkscape:groupmode="layer"
     id="layer20"
     inkscape:label="f18"
     style="display:inline">
    <path
       id="path2717"
       style="display:inline;fill:#c5baaf;fill-opacity:1;stroke:none;stroke-width:0.223758px;stroke-linecap:butt;stroke-linejoin:miter;stroke-opacity:1"
       d="m 37.672711,30.226362 c -0.084,0.09153 -0.15972,0.186378 -0.22538,0.284444 -0.52551,0.784304 -0.39998,1.766586 -0.27442,2.749328 0.98957,0.04798 1.97868,0.09598 2.71928,-0.489513 0.74061,-0.585492 1.23303,-1.804414 1.42183,-2.575503 0.17565,-0.71737 0.0887,-1.047085 -0.0166,-1.35021 l 0.0228,-0.02472 c -0.0118,-0.0029 -0.0233,-0.006 -0.035,-0.0091 -0.004,-0.01158 -0.008,-0.02285 -0.0118,-0.03418 l -0.0228,0.02472 c -0.31038,-0.08116 -0.64624,-0.141888 -1.34735,0.08948 -0.65964,0.217687 -1.64294,0.694235 -2.23047,1.335305 z" />
  </g>
  <g
     inkscape:groupmode="layer"
     id="layer21"
     inkscape:label="f19"
     style="display:inline">
    <path
       id="path3844-5-9"
       style="display:inline;fill:#c5baaf;fill-opacity:1;stroke:none;stroke-width:0.223758px;stroke-linecap:butt;stroke-linejoin:miter;stroke-opacity:1"
       d="m 37.612891,22.738692 c -0.79752,0.74434 -1.80976,1.02199 -2.63702,1.32975 -0.91285,0.33958 -1.60032,0.71573 -2.28784,1.09181 0.41497,-0.65857 0.83009,-1.31699 1.20938,-2.20956 0.3793,-0.89258 0.72301,-2.01945 1.68564,-2.81179 0.96263,-0.79234 2.54412,-1.25043 4.12551,-1.70861 -0.51446,1.56399 -1.02884,3.12808 -1.85512,4.06174 -0.0775,0.0875 -0.15806,0.16965 -0.24055,0.24666 z" />
  </g>
  <g
     inkscape:groupmode="layer"
     id="layer22"
     inkscape:label="f20"
     style="display:inline">
    <path
       id="path3507"
       style="display:inline;fill:#c5baaf;fill-opacity:1;stroke:none;stroke-width:0.223758px;stroke-linecap:butt;stroke-linejoin:miter;stroke-opacity:1"
       d="m 44.704321,25.905381 c 0.31856,-0.648201 0.20608,-1.408964 0.16657,-2.205198 -0.0469,-0.943684 0.009,-1.937199 0.0647,-2.93078 -0.75298,0.63601 -1.50579,1.272209 -2.28872,1.790459 -0.78292,0.518254 -1.59593,0.918746 -1.83433,1.81323 -0.2384,0.894487 0.0974,2.282829 0.43329,3.67132 1.3235,-0.537681 2.6468,-1.075377 3.23395,-1.791051 0.0918,-0.111826 0.16563,-0.22793 0.22461,-0.347972 z" />
  </g>
  <g
     inkscape:groupmode="layer"
     id="layer23"
     inkscape:label="f21"
     style="display:inline">
    <path
       id="path2285"
       style="display:inline;fill:#c5baaf;fill-opacity:1;stroke:none;stroke-width:0.223758px;stroke-linecap:butt;stroke-linejoin:miter;stroke-opacity:1"
       d="m 47.071911,25.411138 c -0.75089,0.445267 -1.48692,1.519027 -1.99162,2.265369 -0.52097,0.77043 -0.79525,1.192097 -1.10712,1.497713 -0.1663,0.16295 -0.34301,0.292908 -0.52485,0.407425 l -0.003,0.0021 -0.48138,0.274562 c 0.40855,0.03998 0.81709,0.07979 1.24896,-0.02051 0.43185,-0.100302 0.88538,-0.339972 1.78862,-0.517998 0.90324,-0.178033 2.25509,-0.293745 3.0003,-0.76312 0.74521,-0.469372 0.88374,-1.292532 1.01041,-1.839929 0.12667,-0.547404 0.24184,-0.818789 0.35703,-1.090565 -0.29323,-0.03385 -0.58634,-0.0679 -1.125,-0.227711 -0.53866,-0.159802 -1.32307,-0.445326 -2.09893,-0.02854 -0.0242,0.01311 -0.0486,0.02638 -0.073,0.04056 z" />
  </g>
  <g
     inkscape:groupmode="layer"
     id="layer24"
     inkscape:label="f22"
     style="display:inline">
    <path
       id="path2977-3-5"
       style="display:inline;fill:#c5baaf;fill-opacity:1;stroke:none;stroke-width:0.264583px;stroke-linecap:butt;stroke-linejoin:miter;stroke-opacity:1"
       d="m 51.509881,22.202225 c -0.26896,-0.17718 -0.52598,-0.38699 -0.74666,-0.64801 -0.58849,-0.69602 -0.91717,-1.75905 -1.24548,-2.82254 1.1122,0.0425 2.2242,0.085 2.96341,0.54117 0.73921,0.45618 1.10614,1.3258 1.3818,2.01007 0.0813,0.20185 0.46409,0.46155 0.5868,0.60303 0.1761,0.20305 1.37613,1.15903 0.87525,0.76455 l 1.58408,1.1047 c -0.8686,0.056 -1.73758,0.11219 -2.38132,-0.0289 -0.64381,-0.14096 -1.06106,-0.47928 -1.69429,-0.81313 -0.39577,-0.20868 -0.87553,-0.41527 -1.32354,-0.71098 z"
       sodipodi:nodetypes="sscssscccsss" />
  </g>
  <g
     inkscape:groupmode="layer"
     id="layer25"
     inkscape:label="f23"
     style="display:inline">
    <path
       id="path2717-9"
       style="display:inline;fill:#c5baaf;fill-opacity:1;stroke:none;stroke-width:0.168189px;stroke-linecap:butt;stroke-linejoin:miter;stroke-opacity:1"
       d="m 54.096871,26.003279 c -0.10034,3.13e-4 -0.19813,0.0068 -0.2923,0.01928 -0.75338,0.102432 -1.26722,0.633253 -1.78134,1.164303 0.51412,0.531041 1.02796,1.061871 1.78134,1.164302 0.75338,0.102431 1.74642,-0.223341 2.30734,-0.492435 0.52185,-0.250353 0.66977,-0.451537 0.79183,-0.649558 h 0.0271 c -0.004,-0.0076 -0.009,-0.0148 -0.0138,-0.02233 0.004,-0.0076 0.009,-0.01489 0.0138,-0.02233 h -0.0271 c -0.12203,-0.197953 -0.27016,-0.399289 -0.79183,-0.649558 -0.49081,-0.23546 -1.31262,-0.514271 -2.01504,-0.511691 z" />
  </g>
  <g
     inkscape:groupmode="layer"
     id="layer26"
     inkscape:label="f24"
     style="display:inline">
    <path
       id="path3844-7"
       style="display:inline;fill:#c5baaf;fill-opacity:1;stroke:none;stroke-width:0.264583px;stroke-linecap:butt;stroke-linejoin:miter;stroke-opacity:1"
       d="m 64.619761,25.487148 c 0.82637,0.990494 1.08765,2.203802 1.39663,3.200713 0.34094,1.10005 0.73983,1.936408 1.13867,2.772833 -0.75025,-0.533229 -1.50031,-1.066586 -2.52919,-1.573046 -1.02888,-0.506454 -2.33669,-0.986303 -3.20888,-2.174875 -0.87219,-1.188566 -1.30909,-3.085822 -1.74609,-4.982959 1.81266,0.710167 3.62546,1.420251 4.67346,2.457127 0.0983,0.09719 0.18991,0.197755 0.2754,0.300207 z" />
  </g>
  <g
     inkscape:groupmode="layer"
     id="layer27"
     inkscape:label="f25"
     style="display:inline">
    <path
       id="path2285-1"
       style="display:inline;fill:#c5baaf;fill-opacity:1;stroke:none;stroke-width:0.167484px;stroke-linecap:butt;stroke-linejoin:miter;stroke-opacity:1"
       d="m 58.280341,30.387223 c 0.51941,0.424221 1.47444,0.688477 2.13641,0.867208 0.68333,0.184498 1.05432,0.277796 1.35448,0.425286 0.16004,0.07865 0.29985,0.172565 0.4303,0.273728 l 0.003,0.0025 0.32549,0.27438 c -0.085,-0.298102 -0.1701,-0.596152 -0.35973,-0.877306 -0.18964,-0.281144 -0.48282,-0.544403 -0.8572,-1.139996 -0.3744,-0.595586 -0.82923,-1.522889 -1.36385,-1.937477 -0.53464,-0.414554 -1.1491,-0.316385 -1.56728,-0.275487 -0.41818,0.04093 -0.63999,0.02419 -0.86207,0.0076 0.0574,0.215181 0.11461,0.430318 0.15172,0.848856 0.0371,0.418538 0.0542,1.040602 0.56045,1.489348 0.0159,0.01395 0.0321,0.02774 0.0488,0.04161 z" />
  </g>
  <g
     inkscape:groupmode="layer"
     id="layer28"
     inkscape:label="f26"
     style="display:inline">
    <path
       id="path2977-9-0"
       style="display:inline;fill:#c5baaf;fill-opacity:1;stroke:none;stroke-width:0.145095px;stroke-linecap:butt;stroke-linejoin:miter;stroke-opacity:1"
       d="m 71.841941,29.187828 c 0.0454,0.170697 0.10911,0.341074 0.20612,0.501456 0.25876,0.427645 0.75374,0.78447 1.24901,1.1412 0.17251,-0.585487 0.34502,-1.170848 0.23728,-1.634852 -0.10741,-0.464099 -0.4955,-0.806893 -0.80289,-1.06989 -0.0907,-0.07759 -0.15873,-0.321946 -0.21074,-0.410495 -0.0747,-0.127046 -0.36157,-0.918012 -0.24423,-0.588662 l -0.29696,-1.016593 c -0.18111,0.441634 -0.36235,0.883437 -0.40168,1.242694 -0.0394,0.359272 0.0635,0.635321 0.12614,1.022855 0.0391,0.242218 0.0627,0.527691 0.13785,0.812302 z"
       sodipodi:nodetypes="sscssscccsss" />
  </g>
  <g
     inkscape:groupmode="layer"
     id="layer29"
     inkscape:label="f27"
     style="display:inline">
    <path
       id="path2977-9-4"
       style="display:inline;fill:#c5baaf;fill-opacity:1;stroke:none;stroke-width:0.145095px;stroke-linecap:butt;stroke-linejoin:miter;stroke-opacity:1"
       d="m 64.149461,33.060593 c -0.17662,0.0017 -0.35744,0.0219 -0.53674,0.07654 -0.47814,0.145673 -0.94572,0.537723 -1.41326,0.930086 0.52509,0.311167 1.05008,0.622301 1.52633,0.63195 0.47626,0.0096 0.90394,-0.281897 1.23444,-0.515193 0.0975,-0.06884 0.3511,-0.07467 0.44971,-0.103344 0.14153,-0.04119 0.97875,-0.124767 0.63065,-0.09197 l 1.0584,-0.03789 c -0.38355,-0.284122 -0.76723,-0.568429 -1.10579,-0.69487 -0.33856,-0.126517 -0.63142,-0.09473 -1.02247,-0.129223 -0.24441,-0.02157 -0.5269,-0.06901 -0.82126,-0.06605 z"
       sodipodi:nodetypes="sscssscccsss" />
  </g>
  <g
     inkscape:groupmode="layer"
     id="layer30"
     inkscape:label="f28"
     style="display:inline">
    <path
       id="path3844"
       style="display:inline;fill:#c5baaf;fill-opacity:1;stroke:none;stroke-width:0.223758px;stroke-linecap:butt;stroke-linejoin:miter;stroke-opacity:1"
       d="m 70.524711,34.405182 c -1.09076,0.0181 -2.01199,0.521129 -2.82101,0.874057 -0.89273,0.389446 -1.64862,0.596101 -2.40453,0.802824 0.75592,0.185793 1.51181,0.37139 2.40453,0.750374 0.89271,0.378984 1.92249,0.951279 3.16539,0.853085 1.2429,-0.09819 2.69909,-0.866624 4.15526,-1.634927 -1.45617,-0.768303 -2.91236,-1.536732 -4.15526,-1.634918 -0.11652,-0.0092 -0.23154,-0.01235 -0.34438,-0.01049 z" />
  </g>
  <g
     inkscape:groupmode="layer"
     id="layer31"
     inkscape:label="f29"
     style="display:inline">
    <path
       id="path3844-4"
       style="display:inline;fill:#c5baaf;fill-opacity:1;stroke:none;stroke-width:0.172345px;stroke-linecap:butt;stroke-linejoin:miter;stroke-opacity:1"
       d="m 68.194011,39.592214 c -0.57205,-0.595996 -1.33534,-0.839572 -1.95464,-1.100783 -0.68337,-0.28824 -1.1913,-0.59787 -1.69927,-0.907478 0.28249,0.518699 0.56509,1.037282 0.80705,1.734854 0.24196,0.697566 0.44344,1.574216 1.13981,2.212038 0.6964,0.637799 1.8876,1.037047 3.07873,1.436329 -0.30844,-1.217824 -0.61682,-2.435719 -1.20038,-3.178153 -0.0544,-0.06988 -0.11215,-0.135117 -0.17112,-0.196968 z" />
  </g>
  <g
     inkscape:groupmode="layer"
     id="layer32"
     inkscape:label="f30"
     style="display:inline">
    <path
       id="path2977-9-4-7"
       style="display:inline;fill:#c5baaf;fill-opacity:1;stroke:none;stroke-width:0.171568px;stroke-linecap:butt;stroke-linejoin:miter;stroke-opacity:1"
       d="m 72.744201,43.017704 c 0.20884,0.002 0.42265,0.0259 0.63467,0.0905 0.56538,0.17225 1.11826,0.635833 1.67111,1.099773 -0.6209,0.36795 -1.24167,0.73584 -1.80481,0.74726 -0.56315,0.0114 -1.06887,-0.33334 -1.45967,-0.6092 -0.11529,-0.0814 -0.41515,-0.0883 -0.53176,-0.12219 -0.16735,-0.0487 -1.15732,-0.14754 -0.74571,-0.10876 l -1.2515,-0.0448 c 0.45353,-0.33596 0.90721,-0.672153 1.30754,-0.821653 0.40033,-0.14961 0.74662,-0.11201 1.20902,-0.15281 0.289,-0.0255 0.62303,-0.0816 0.9711,-0.0781 z"
       sodipodi:nodetypes="sscssscccsss" />
  </g>
  <g
     inkscape:groupmode="layer"
     id="layer33"
     inkscape:label="f31"
     style="display:inline">
    <path
       id="path2285-2"
       style="display:inline;fill:#c5baaf;fill-opacity:1;stroke:none;stroke-width:0.223758px;stroke-linecap:butt;stroke-linejoin:miter;stroke-opacity:1"
       d="m 70.110941,50.847687 c 0.18849,-0.85239 -0.0918,-2.12366 -0.29138,-3.00225 -0.206,-0.90694 -0.32617,-1.3954 -0.33597,-1.83194 -0.005,-0.23277 0.0208,-0.45058 0.0616,-0.66156 l 8.5e-4,-0.004 0.12878,-0.53901 c -0.30852,0.2708 -0.61691,0.54172 -0.83899,0.92544 -0.22208,0.38371 -0.35727,0.87853 -0.84494,1.65938 -0.48765,0.78085 -1.32752,1.84646 -1.49452,2.71119 -0.16702,0.86473 0.33895,1.52864 0.6518,1.99535 0.31285,0.46671 0.43214,0.7363 0.55172,1.00618 0.22519,-0.19084 0.45044,-0.38144 0.93536,-0.66525 0.48491,-0.28382 1.2296,-0.66101 1.45593,-1.51214 0.007,-0.0266 0.014,-0.0535 0.0203,-0.081 z" />
  </g>
  <g
     inkscape:groupmode="layer"
     id="layer34"
     inkscape:label="f32"
     style="display:inline">
    <path
       id="path2285-2-6"
       style="display:inline;fill:#c5baaf;fill-opacity:1;stroke:none;stroke-width:0.264583px;stroke-linecap:butt;stroke-linejoin:miter;stroke-opacity:1"
       d="m 77.537721,49.397267 c -0.22287,-1.00791 0.10858,-2.51113 0.34455,-3.55002 0.24358,-1.07241 0.38568,-1.64999 0.39726,-2.166169 0.006,-0.27524 -0.0246,-0.53279 -0.0728,-0.78227 l -0.001,-0.005 -0.15228,-0.63735 c 0.36481,0.32021 0.72946,0.64056 0.99206,1.09428 0.2626,0.453729 0.42246,1.038829 0.9991,1.962139 0.57663,0.92332 1.56973,2.18335 1.7672,3.20585 0.19749,1.0225 -0.40079,1.80755 -0.77072,2.35941 -0.36993,0.55186 -0.51099,0.87064 -0.65238,1.18976 -0.26628,-0.22566 -0.53263,-0.45104 -1.10602,-0.78663 -0.57338,-0.3356 -1.45394,-0.78161 -1.72157,-1.78803 -0.008,-0.0315 -0.0166,-0.0633 -0.024,-0.0958 z" />
  </g>
  <g
     inkscape:groupmode="layer"
     id="layer35"
     inkscape:label="f33"
     style="display:inline">
    <path
       id="path2977-3"
       style="display:inline;fill:#c5baaf;fill-opacity:1;stroke:none;stroke-width:0.223758px;stroke-linecap:butt;stroke-linejoin:miter;stroke-opacity:1"
       d="m 71.582731,57.215907 c 0.22746,-0.14985 0.44482,-0.32728 0.63145,-0.54803 0.49768,-0.58862 0.77565,-1.48763 1.0533,-2.38702 -0.94059,0.0359 -1.88101,0.0719 -2.50616,0.45766 -0.62515,0.3858 -0.93546,1.12124 -1.16859,1.69992 -0.0687,0.17071 -0.39248,0.39034 -0.49626,0.50999 -0.14892,0.17172 -1.16379,0.98019 -0.7402,0.64658 l -1.33965,0.93424 c 0.73457,0.0474 1.46947,0.0949 2.01388,-0.0244 0.54447,-0.11921 0.89734,-0.40532 1.43286,-0.68766 0.33471,-0.17648 0.74044,-0.3512 1.11932,-0.60128 z"
       sodipodi:nodetypes="sscssscccsss" />
  </g>
</svg>
