<?xml version="1.0" encoding="UTF-8" standalone="no"?>
<!-- Created with Inkscape (http://www.inkscape.org/) -->

<svg
   margin="O"
   width="197"
   height="53"
   viewBox="0 0 197 53"
   version="1.1"
   id="svg5"
   inkscape:version="1.1.2 (b8e25be8, 2022-02-05)"
   sodipodi:docname="plantes_site6.svg"
   xmlns:inkscape="http://www.inkscape.org/namespaces/inkscape"
   xmlns:sodipodi="http://sodipodi.sourceforge.net/DTD/sodipodi-0.dtd"
   xmlns="http://www.w3.org/2000/svg"
   xmlns:svg="http://www.w3.org/2000/svg">
  <sodipodi:namedview
     id="namedview7"
     pagecolor="#ffffff"
     bordercolor="#666666"
     borderopacity="1.0"
     inkscape:pageshadow="2"
     inkscape:pageopacity="0.0"
     inkscape:pagecheckerboard="0"
     inkscape:document-units="mm"
     showgrid="false"
     inkscape:zoom="1.802918"
     inkscape:cx="96.232883"
     inkscape:cy="39.657931"
     inkscape:window-width="1280"
     inkscape:window-height="747"
     inkscape:window-x="0"
     inkscape:window-y="25"
     inkscape:window-maximized="0"
     inkscape:current-layer="tiges"
     inkscape:snap-global="false" />
  <defs
     id="defs2">
    <inkscape:path-effect
       effect="bspline"
       id="path-effect3846"
       is_visible="true"
       lpeversion="1"
       weight="33.333333"
       steps="2"
       helper_size="0"
       apply_no_weight="true"
       apply_with_weight="true"
       only_selected="false" />
    <inkscape:path-effect
       effect="bspline"
       id="path-effect3509"
       is_visible="true"
       lpeversion="1"
       weight="33.333333"
       steps="2"
       helper_size="0"
       apply_no_weight="true"
       apply_with_weight="true"
       only_selected="false" />
    <inkscape:path-effect
       effect="bspline"
       id="path-effect2979"
       is_visible="true"
       lpeversion="1"
       weight="33.333333"
       steps="2"
       helper_size="0"
       apply_no_weight="true"
       apply_with_weight="true"
       only_selected="false" />
    <inkscape:path-effect
       effect="bspline"
       id="path-effect2719"
       is_visible="true"
       lpeversion="1"
       weight="33.333333"
       steps="2"
       helper_size="0"
       apply_no_weight="true"
       apply_with_weight="true"
       only_selected="false" />
    <inkscape:path-effect
       effect="bspline"
       id="path-effect2287"
       is_visible="true"
       lpeversion="1"
       weight="33.333333"
       steps="2"
       helper_size="0"
       apply_no_weight="true"
       apply_with_weight="true"
       only_selected="false" />
    <inkscape:path-effect
       effect="bspline"
       id="path-effect1983"
       is_visible="true"
       lpeversion="1"
       weight="33.333333"
       steps="2"
       helper_size="0"
       apply_no_weight="true"
       apply_with_weight="true"
       only_selected="false" />
    <inkscape:path-effect
       effect="bspline"
       id="path-effect1590"
       is_visible="true"
       lpeversion="1"
       weight="33.333333"
       steps="2"
       helper_size="0"
       apply_no_weight="true"
       apply_with_weight="true"
       only_selected="false" />
    <inkscape:path-effect
       effect="bspline"
       id="path-effect1586"
       is_visible="true"
       lpeversion="1"
       weight="33.333333"
       steps="2"
       helper_size="0"
       apply_no_weight="true"
       apply_with_weight="true"
       only_selected="false" />
    <inkscape:path-effect
       effect="bspline"
       id="path-effect1582"
       is_visible="true"
       lpeversion="1"
       weight="33.333333"
       steps="2"
       helper_size="0"
       apply_no_weight="true"
       apply_with_weight="true"
       only_selected="false" />
    <inkscape:path-effect
       effect="bspline"
       id="path-effect1578"
       is_visible="true"
       lpeversion="1"
       weight="33.333333"
       steps="2"
       helper_size="0"
       apply_no_weight="true"
       apply_with_weight="true"
       only_selected="false" />
    <inkscape:path-effect
       effect="bspline"
       id="path-effect1574"
       is_visible="true"
       lpeversion="1"
       weight="33.333333"
       steps="2"
       helper_size="0"
       apply_no_weight="true"
       apply_with_weight="true"
       only_selected="false" />
    <inkscape:path-effect
       effect="bspline"
       id="path-effect1570"
       is_visible="true"
       lpeversion="1"
       weight="33.333333"
       steps="2"
       helper_size="0"
       apply_no_weight="true"
       apply_with_weight="true"
       only_selected="false" />
    <inkscape:path-effect
       effect="bspline"
       id="path-effect1566"
       is_visible="true"
       lpeversion="1"
       weight="33.333333"
       steps="2"
       helper_size="0"
       apply_no_weight="true"
       apply_with_weight="true"
       only_selected="false" />
    <inkscape:path-effect
       effect="bspline"
       id="path-effect1562"
       is_visible="true"
       lpeversion="1"
       weight="33.333333"
       steps="2"
       helper_size="0"
       apply_no_weight="true"
       apply_with_weight="true"
       only_selected="false" />
    <inkscape:path-effect
       effect="bspline"
       id="path-effect1558"
       is_visible="true"
       lpeversion="1"
       weight="33.333333"
       steps="2"
       helper_size="0"
       apply_no_weight="true"
       apply_with_weight="true"
       only_selected="false" />
    <inkscape:path-effect
       effect="bspline"
       id="path-effect1554"
       is_visible="true"
       lpeversion="1"
       weight="33.333333"
       steps="2"
       helper_size="0"
       apply_no_weight="true"
       apply_with_weight="true"
       only_selected="false" />
    <inkscape:path-effect
       effect="bspline"
       id="path-effect1550"
       is_visible="true"
       lpeversion="1"
       weight="33.333333"
       steps="2"
       helper_size="0"
       apply_no_weight="true"
       apply_with_weight="true"
       only_selected="false" />
    <inkscape:path-effect
       effect="bspline"
       id="path-effect1433"
       is_visible="true"
       lpeversion="1"
       weight="33.333333"
       steps="2"
       helper_size="0"
       apply_no_weight="true"
       apply_with_weight="true"
       only_selected="false" />
    <inkscape:path-effect
       effect="bspline"
       id="path-effect1429"
       is_visible="true"
       lpeversion="1"
       weight="33.333333"
       steps="2"
       helper_size="0"
       apply_no_weight="true"
       apply_with_weight="true"
       only_selected="false" />
    <inkscape:path-effect
       effect="bspline"
       id="path-effect1570-7"
       is_visible="true"
       lpeversion="1"
       weight="33.333333"
       steps="2"
       helper_size="0"
       apply_no_weight="true"
       apply_with_weight="true"
       only_selected="false" />
    <inkscape:path-effect
       effect="bspline"
       id="path-effect1574-4"
       is_visible="true"
       lpeversion="1"
       weight="33.333333"
       steps="2"
       helper_size="0"
       apply_no_weight="true"
       apply_with_weight="true"
       only_selected="false" />
    <inkscape:path-effect
       effect="bspline"
       id="path-effect1550-1"
       is_visible="true"
       lpeversion="1"
       weight="33.333333"
       steps="2"
       helper_size="0"
       apply_no_weight="true"
       apply_with_weight="true"
       only_selected="false" />
    <inkscape:path-effect
       effect="bspline"
       id="path-effect1983-9"
       is_visible="true"
       lpeversion="1"
       weight="33.333333"
       steps="2"
       helper_size="0"
       apply_no_weight="true"
       apply_with_weight="true"
       only_selected="false" />
    <inkscape:path-effect
       effect="bspline"
       id="path-effect1983-8"
       is_visible="true"
       lpeversion="1"
       weight="33.333333"
       steps="2"
       helper_size="0"
       apply_no_weight="true"
       apply_with_weight="true"
       only_selected="false" />
    <inkscape:path-effect
       effect="bspline"
       id="path-effect2287-8"
       is_visible="true"
       lpeversion="1"
       weight="33.333333"
       steps="2"
       helper_size="0"
       apply_no_weight="true"
       apply_with_weight="true"
       only_selected="false" />
    <inkscape:path-effect
       effect="bspline"
       id="path-effect2719-0"
       is_visible="true"
       lpeversion="1"
       weight="33.333333"
       steps="2"
       helper_size="0"
       apply_no_weight="true"
       apply_with_weight="true"
       only_selected="false" />
    <inkscape:path-effect
       effect="bspline"
       id="path-effect2979-2"
       is_visible="true"
       lpeversion="1"
       weight="33.333333"
       steps="2"
       helper_size="0"
       apply_no_weight="true"
       apply_with_weight="true"
       only_selected="false" />
    <inkscape:path-effect
       effect="bspline"
       id="path-effect3509-5"
       is_visible="true"
       lpeversion="1"
       weight="33.333333"
       steps="2"
       helper_size="0"
       apply_no_weight="true"
       apply_with_weight="true"
       only_selected="false" />
    <inkscape:path-effect
       effect="bspline"
       id="path-effect3846-2"
       is_visible="true"
       lpeversion="1"
       weight="33.333333"
       steps="2"
       helper_size="0"
       apply_no_weight="true"
       apply_with_weight="true"
       only_selected="false" />
  </defs>
  <g
     inkscape:groupmode="layer"
     id="po"
     inkscape:label="plantes_o"
     style="display:inline"
     sodipodi:insensitive="true">
    <path
       style="display:inline;fill:none;stroke:#379634;stroke-width:0.863656;stroke-linecap:round;stroke-linejoin:miter;stroke-miterlimit:4;stroke-dasharray:none;stroke-opacity:1"
       d="m 66.469098,52.78071 c -0.119575,-2.286065 -0.239167,-4.572475 -0.777264,-6.706466 -0.538097,-2.133991 -1.494817,-4.115503 -1.255746,-6.859326 0.23907,-2.743822 1.674155,-6.249585 1.913403,-10.593731 0.239248,-4.344147 -0.717473,-9.526573 -1.0763,-13.18489 -0.358828,-3.658318 -0.119648,-5.7922527 0.119571,-7.9265361"
       id="path1548"
       inkscape:path-effect="#path-effect1550"
       inkscape:original-d="m 66.469098,52.78071 c -0.119327,-2.286078 -0.238922,-4.572488 -0.358778,-6.859229 -0.956498,-1.981269 -1.91322,-3.96278 -2.870226,-5.944673 1.435407,-3.505572 2.870491,-7.011335 4.305339,-10.517493 -0.956497,-5.182311 -1.91322,-10.364737 -2.870226,-15.54761 0.239456,-2.133692 0.478636,-4.2676271 0.717555,-6.4019441"
       inkscape:export-filename="/Users/rabelmarie/Documents/inkscape/inkscape/plantes.png"
       inkscape:export-xdpi="555.69"
       inkscape:export-ydpi="555.69" />
    <path
       style="display:inline;fill:none;stroke:#379634;stroke-width:0.863656;stroke-linecap:round;stroke-linejoin:miter;stroke-miterlimit:4;stroke-dasharray:none;stroke-opacity:1"
       d="m 81.17901,52.323426 c -1.076205,-3.20059 -2.152541,-6.401569 -2.332009,-10.364777 -0.179468,-3.963208 0.538074,-8.688362 0.59791,-13.261195 0.05984,-4.572833 -0.538115,-8.993139 -0.717545,-12.117953 -0.179431,-3.124814 0.05975,-4.953914 0.298973,-6.7833311"
       id="path1552"
       inkscape:path-effect="#path-effect1554"
       inkscape:original-d="m 81.17901,52.323426 c -1.076071,-3.200635 -2.152406,-6.401614 -3.229004,-9.602924 0.717836,-4.725014 1.435378,-9.450168 2.152669,-14.175756 -0.59771,-4.420154 -1.195663,-8.84046 -1.793891,-13.261187 0.239456,-1.828832 0.478636,-3.657932 0.717555,-5.4873891"
       inkscape:export-filename="/Users/rabelmarie/Documents/inkscape/inkscape/plantes.png"
       inkscape:export-xdpi="555.69"
       inkscape:export-ydpi="555.69" />
    <path
       style="display:inline;fill:none;stroke:#379634;stroke-width:0.863656;stroke-linecap:round;stroke-linejoin:miter;stroke-miterlimit:4;stroke-dasharray:none;stroke-opacity:1"
       d="M 94.095032,52.323426 C 93.975455,49.73251 93.855861,47.141241 94.214609,44.016399 94.573357,40.891557 95.41049,37.233371 94.872447,33.879985 94.334404,30.5266 92.420957,27.478109 91.703281,22.752772 90.985604,18.027435 91.463966,11.625606 91.942361,5.2233379"
       id="path1556"
       inkscape:path-effect="#path-effect1558"
       inkscape:original-d="M 94.095032,52.323426 C 93.975702,49.732499 93.85611,47.141229 93.736251,44.549627 94.573684,40.891632 95.410815,37.233445 96.2477,33.57485 94.334443,30.526576 92.420997,27.478084 90.507247,24.429198 90.985892,18.027457 91.464253,11.625627 91.942361,5.2233379"
       inkscape:export-filename="/Users/rabelmarie/Documents/inkscape/inkscape/plantes.png"
       inkscape:export-xdpi="555.69"
       inkscape:export-ydpi="555.69" />
    <path
       id="path3844-4-6"
       style="display:inline;fill:#379634;fill-opacity:1;stroke:none;stroke-width:0.161964px;stroke-linecap:butt;stroke-linejoin:miter;stroke-opacity:1"
       d="m 66.8894,41.231581 c -0.498372,0.694606 -0.70374,1.540094 -0.923343,2.235478 -0.242323,0.767307 -0.501916,1.35169 -0.761479,1.936112 0.433043,-0.376096 0.865987,-0.752293 1.447919,-1.111768 0.581922,-0.359488 1.312924,-0.702433 1.846531,-1.535086 0.53363,-0.832628 0.87003,-2.154965 1.206489,-3.4772 -1.01557,0.506699 -2.031205,1.013334 -2.651606,1.741754 -0.05846,0.06793 -0.112586,0.139296 -0.164969,0.210149 z"
       inkscape:export-filename="/Users/rabelmarie/Documents/inkscape/inkscape/plantes.png"
       inkscape:export-xdpi="555.69"
       inkscape:export-ydpi="555.69" />
    <path
       id="path2285-2-5"
       style="display:inline;fill:#379634;fill-opacity:1;stroke:none;stroke-width:0.298704px;stroke-linecap:butt;stroke-linejoin:miter;stroke-opacity:1"
       d="m 97.750868,47.638738 c 0.850348,-0.745869 1.633058,-2.435252 2.168956,-3.608797 0.552906,-1.21163 0.843196,-1.873315 1.186636,-2.364617 0.18318,-0.261946 0.38131,-0.475294 0.58671,-0.665993 l 0.004,-0.0038 0.54601,-0.461771 c -0.48519,-0.01861 -0.97035,-0.03696 -1.47184,0.15779 -0.50149,0.194713 -1.017416,0.601194 -2.068814,0.960707 -1.051405,0.359501 -2.637042,0.670913 -3.478768,1.452431 -0.841744,0.781531 -0.939536,2.033373 -1.045322,2.86934 -0.105776,0.835993 -0.220003,1.25578 -0.334218,1.676141 0.348645,0.02103 0.697141,0.04244 1.345379,0.228043 0.64822,0.185575 1.596347,0.535516 2.478507,-0.170421 0.02757,-0.0218 0.05533,-0.04461 0.08291,-0.06844 z"
       inkscape:export-filename="/Users/rabelmarie/Documents/inkscape/inkscape/plantes.png"
       inkscape:export-xdpi="555.69"
       inkscape:export-ydpi="555.69" />
    <path
       id="path2977-9-4-5"
       style="display:inline;fill:#379634;fill-opacity:1;stroke:none;stroke-width:0.193694px;stroke-linecap:butt;stroke-linejoin:miter;stroke-opacity:1"
       d="m 67.985826,44.697628 c -0.193638,-0.09967 -0.400266,-0.176117 -0.620845,-0.203712 -0.588205,-0.07367 -1.276602,0.201801 -1.965116,0.477665 0.432307,0.736603 0.864509,1.473104 1.380218,1.761803 0.515713,0.2887 1.114967,0.130132 1.581688,-0.0038 0.137686,-0.03951 0.417268,0.09903 0.53796,0.116112 0.173227,0.02447 1.125399,0.392065 0.730394,0.236506 l 1.17298,0.559032 c -0.290001,-0.617152 -0.580056,-1.234635 -0.892431,-1.606308 -0.312339,-0.371787 -0.64657,-0.496821 -1.057965,-0.770863 -0.25712,-0.171274 -0.544096,-0.400592 -0.866891,-0.566616 z"
       sodipodi:nodetypes="sscssscccsss"
       inkscape:export-filename="/Users/rabelmarie/Documents/inkscape/inkscape/plantes.png"
       inkscape:export-xdpi="555.69"
       inkscape:export-ydpi="555.69" />
    <path
       id="path1981-1-5"
       style="display:inline;fill:#379634;fill-opacity:1;stroke:none;stroke-width:0.298704px;stroke-linecap:butt;stroke-linejoin:miter;stroke-opacity:1"
       d="m 74.288019,40.619948 c 0.250264,0.302196 0.512984,0.568591 0.783087,0.781862 0.960341,0.758321 2.016532,0.846865 2.701497,0.993846 0.488887,0.104896 0.788323,0.239234 1.033663,0.382277 l 0.214546,0.26108 c -0.02735,-0.05876 -0.05485,-0.118534 -0.08206,-0.179062 0.04903,0.03097 0.09742,0.06258 0.145128,0.09381 L 78.867344,42.697292 C 78.740455,42.39349 78.61698,42.020644 78.505442,41.404117 78.349379,40.541448 78.217293,39.202491 77.566021,38.025962 76.914756,36.849447 75.744129,35.83517 74.666283,35.203361 73.588549,34.571398 72.603636,34.321955 71.618317,34.07213 c 0.254492,1.238688 0.508688,2.476854 1.068001,3.810305 0.402007,0.958401 0.961625,1.965923 1.601084,2.738354 z"
       inkscape:export-filename="/Users/rabelmarie/Documents/inkscape/inkscape/plantes.png"
       inkscape:export-xdpi="555.69"
       inkscape:export-ydpi="555.69" />
    <path
       id="path2977-3-4"
       style="display:inline;fill:#379634;fill-opacity:1;stroke:none;stroke-width:0.298704px;stroke-linecap:butt;stroke-linejoin:miter;stroke-opacity:1"
       d="m 91.005505,33.075951 c 0.216029,0.304466 0.462499,0.58757 0.75405,0.81495 0.777436,0.606395 1.87809,0.814326 2.97915,1.021734 -0.211216,-1.392833 -0.422349,-2.785411 -0.985665,-3.628159 -0.563317,-0.842747 -1.478631,-1.136379 -2.196866,-1.350963 -0.211871,-0.06322 -0.526775,-0.495139 -0.685281,-0.622276 -0.227476,-0.182478 -1.354879,-1.50883 -0.888795,-0.954348 L 88.649291,26.57556 c 0.07677,1.105064 0.15344,2.210625 0.390799,2.994195 0.237254,0.783698 0.635104,1.243735 1.061403,1.976693 0.266447,0.4581 0.543622,1.022422 0.904036,1.529452 z"
       sodipodi:nodetypes="sscssscccsss"
       inkscape:export-filename="/Users/rabelmarie/Documents/inkscape/inkscape/plantes.png"
       inkscape:export-xdpi="555.69"
       inkscape:export-ydpi="555.69" />
    <path
       id="path2717-0-3"
       style="display:inline;fill:#379634;fill-opacity:1;stroke:none;stroke-width:0.298704px;stroke-linecap:butt;stroke-linejoin:miter;stroke-opacity:1"
       d="m 62.315888,33.596365 c 0.140361,0.05519 0.280077,0.09699 0.418128,0.122994 1.104274,0.208581 2.089892,-0.59718 3.076001,-1.403259 -0.450542,-1.37829 -0.900817,-2.755981 -1.901788,-3.385903 -1.00097,-0.629911 -2.552721,-0.51255 -3.472142,-0.271251 -0.855362,0.224487 -1.163487,0.555935 -1.43388,0.89526 l -0.03798,-0.01517 c 0.0025,0.01784 0.0054,0.03569 0.008,0.05353 -0.01006,0.01287 -0.02045,0.02549 -0.03048,0.03824 l 0.03798,0.01517 c 0.07069,0.475027 0.176133,0.971542 0.778798,1.776563 0.567026,0.757404 1.57468,1.788148 2.557399,2.173739 z"
       inkscape:export-filename="/Users/rabelmarie/Documents/inkscape/inkscape/plantes.png"
       inkscape:export-xdpi="555.69"
       inkscape:export-ydpi="555.69" />
    <path
       id="path1981-5-2"
       style="display:inline;fill:#379634;fill-opacity:1;stroke:none;stroke-width:0.215365px;stroke-linecap:butt;stroke-linejoin:miter;stroke-opacity:1"
       d="m 93.092026,20.246966 c -0.177841,0.201851 -0.335887,0.418398 -0.46421,0.646606 -0.456253,0.811407 -0.537909,1.772319 -0.641373,2.387227 -0.07384,0.438906 -0.158515,0.701311 -0.246527,0.913257 l -0.153919,0.172383 c 0.0339,-0.01975 0.06843,-0.03951 0.103371,-0.05888 -0.01893,0.04219 -0.03817,0.08361 -0.05719,0.124524 l 0.150718,-0.17557 c 0.17503,-0.08845 0.388873,-0.167528 0.739693,-0.213208 0.490872,-0.06398 1.249453,-0.06207 1.932095,-0.551512 0.682656,-0.489416 1.289802,-1.46979 1.677956,-2.401107 0.388569,-0.930743 0.558761,-1.81146 0.729165,-2.692533 -0.705751,0.11968 -1.411203,0.239131 -2.179525,0.629757 -0.552225,0.280771 -1.136867,0.701642 -1.591424,1.217365 z"
       inkscape:export-filename="/Users/rabelmarie/Documents/inkscape/inkscape/plantes.png"
       inkscape:export-xdpi="555.69"
       inkscape:export-ydpi="555.69" />
    <path
       id="path2717-0-5"
       style="display:inline;fill:#379634;fill-opacity:1;stroke:none;stroke-width:0.298704px;stroke-linecap:butt;stroke-linejoin:miter;stroke-opacity:1"
       d="m 79.757328,20.914144 c -0.09463,0.143196 -0.179326,0.290853 -0.251966,0.442729 -0.581442,1.214586 -0.383796,2.685613 -0.186116,4.157328 1.17147,0.0089 2.342401,0.01784 3.187934,-0.911154 0.845533,-0.929009 1.366044,-2.7959 1.550367,-3.96905 0.171483,-1.091401 0.05222,-1.582308 -0.08744,-2.031996 l 0.02574,-0.03862 c -0.01388,-0.0038 -0.02786,-0.0076 -0.04178,-0.01147 -0.0053,-0.01682 -0.01045,-0.0339 -0.01571,-0.05073 l -0.02574,0.03862 c -0.370751,-0.102346 -0.770584,-0.172268 -1.587245,0.220983 -0.768357,0.370015 -1.906072,1.150501 -2.567972,2.15341 z"
       inkscape:export-filename="/Users/rabelmarie/Documents/inkscape/inkscape/plantes.png"
       inkscape:export-xdpi="555.69"
       inkscape:export-ydpi="555.69" />
    <path
       id="path2285-2-048"
       style="display:inline;fill:#379634;fill-opacity:1;stroke:none;stroke-width:0.298704px;stroke-linecap:butt;stroke-linejoin:miter;stroke-opacity:1"
       d="m 65.587382,17.8097 c 0.382343,-1.222094 1.501567,-2.569055 2.280779,-3.495031 0.804362,-0.95584 1.246588,-1.462806 1.546363,-1.99859 0.159826,-0.28573 0.279207,-0.579209 0.37961,-0.876715 l 0.0019,-0.0064 0.232384,-0.780894 c 0.121676,0.598913 0.24314,1.197864 0.205226,1.864278 -0.03792,0.666439 -0.23466,1.397714 -0.276877,2.784136 -0.04222,1.386409 0.07068,3.426167 -0.340865,4.645443 -0.411532,1.219277 -1.347665,1.618047 -1.963849,1.934671 -0.616198,0.316612 -0.912072,0.551538 -1.208409,0.786604 -0.09334,-0.428671 -0.186912,-0.857074 -0.47243,-1.621679 -0.28551,-0.764605 -0.762978,-1.865692 -0.418501,-3.118285 0.01089,-0.03913 0.02188,-0.07864 0.03395,-0.118152 z"
       inkscape:export-filename="/Users/rabelmarie/Documents/inkscape/inkscape/plantes.png"
       inkscape:export-xdpi="555.69"
       inkscape:export-ydpi="555.69" />
    <path
       id="path3844-4-5"
       style="display:inline;fill:#379634;fill-opacity:1;stroke:none;stroke-width:0.23007px;stroke-linecap:butt;stroke-linejoin:miter;stroke-opacity:1"
       d="m 62.776823,7.6661359 c -0.831518,-0.653349 -1.777447,-0.720289 -2.563801,-0.867373 -0.867699,-0.162289 -1.540913,-0.422094 -2.21417,-0.681835 0.477153,0.65001 0.954385,1.299816 1.438165,2.226098 0.483778,0.926282 0.974322,2.1291421 1.960553,2.7965501 0.986253,0.667369 2.468147,0.799719 3.949991,0.932145 -0.714123,-1.660196 -1.428199,-3.3205191 -2.316313,-4.1831761 -0.08301,-0.08144 -0.168438,-0.154756 -0.254274,-0.222702 z"
       inkscape:export-filename="/Users/rabelmarie/Documents/inkscape/inkscape/plantes.png"
       inkscape:export-xdpi="555.69"
       inkscape:export-ydpi="555.69" />
    <path
       id="path2285-1-1"
       style="display:inline;fill:#379634;fill-opacity:1;stroke:none;stroke-width:0.183156px;stroke-linecap:butt;stroke-linejoin:miter;stroke-opacity:1"
       d="M 90.888896,8.4529819 C 90.404464,7.9013669 89.491709,7.5229909 88.858816,7.2662439 88.205498,7.0012259 87.850503,6.8658049 87.566377,6.6674589 87.414902,6.5616709 87.28362,6.4382049 87.16177,6.3062369 l -0.0024,-0.0025 -0.303368,-0.355995 c 0.06942,0.372348 0.138963,0.74462 0.310379,1.101775 0.171441,0.357118 0.443782,0.697933 0.780453,1.453056 0.33668,0.755109 0.73693,1.9237601 1.23644,2.4644141 0.499503,0.540653 1.098366,0.453218 1.504792,0.425713 0.406439,-0.02753 0.620346,0.0051 0.83455,0.03798 -0.04629,-0.268548 -0.0924,-0.537033 -0.110303,-1.05528 -0.0179,-0.5182461 -0.0077,-1.2864201 -0.478274,-1.8676551 -0.01476,-0.0181 -0.02993,-0.03607 -0.04545,-0.05391 z"
       inkscape:export-filename="/Users/rabelmarie/Documents/inkscape/inkscape/plantes.png"
       inkscape:export-xdpi="555.69"
       inkscape:export-ydpi="555.69" />
  </g>
  <g
     inkscape:groupmode="layer"
     id="tiges"
     inkscape:label="plante_tiges"
     style="display:inline">
    <path
       style="fill:none;stroke:#379634;stroke-width:0.863656;stroke-linecap:round;stroke-linejoin:miter;stroke-miterlimit:4;stroke-dasharray:none;stroke-opacity:1"
       d="m 34.537827,88.32343 c 0,-4.11521 0,-8.23074 -0.538109,-11.736583 -0.538108,-3.505843 -1.614419,-6.401899 -1.375329,-9.29817 0.239091,-2.896272 1.793762,-5.792328 2.391777,-9.679176 0.598014,-3.886848 0.239243,-8.764427 -0.119562,-13.642469"
       id="path1427"
       inkscape:path-effect="#path-effect1429"
       inkscape:original-d="m 34.537827,88.32343 c 2.64e-4,-4.11521 2.64e-4,-8.23074 0,-12.346622 -1.076092,-2.895851 -2.152407,-5.791905 -3.229007,-8.688368 1.555004,-2.89585 3.109677,-5.791905 4.66412,-8.688367 -0.358521,-4.877438 -0.717293,-9.755016 -1.076336,-14.633041"
       inkscape:export-filename="/Users/rabelmarie/Documents/inkscape/inkscape/plantes.png"
       inkscape:export-xdpi="555.69"
       inkscape:export-ydpi="555.69" />
    <path
       style="fill:none;stroke:#379634;stroke-width:0.863656;stroke-linecap:round;stroke-linejoin:miter;stroke-miterlimit:4;stroke-dasharray:none;stroke-opacity:1"
       d="m 49.965295,88.32343 c 0,-1.98122 0,-3.96277 0.478339,-6.096853 0.478339,-2.134083 1.435061,-4.420443 1.136216,-6.859224 -0.298845,-2.43878 -1.853522,-5.029999 -2.033043,-8.459719 -0.179521,-3.429719 1.016381,-7.697603 0.956688,-11.355829 -0.05969,-3.658225 -1.375184,-6.706705 -1.973237,-9.450453 -0.598053,-2.743749 -0.478462,-5.182544 -0.358854,-7.621708"
       id="path1431"
       inkscape:path-effect="#path-effect1433"
       inkscape:original-d="m 49.965295,88.32343 c 2.64e-4,-1.98122 2.64e-4,-3.96277 0,-5.94468 0.957027,-2.28611 1.913749,-4.57247 2.870226,-6.859227 -1.554472,-2.590977 -3.109148,-5.182196 -4.664117,-7.773798 1.196215,-4.267717 2.392119,-8.5356 3.587781,-12.803915 -1.31528,-3.048275 -2.630775,-6.096753 -3.946559,-9.14564 0.119859,-2.438553 0.239448,-4.877348 0.358778,-7.316526"
       inkscape:export-filename="/Users/rabelmarie/Documents/inkscape/inkscape/plantes.png"
       inkscape:export-xdpi="555.69"
       inkscape:export-ydpi="555.69" />
    <path
       style="fill:none;stroke:#379634;stroke-width:0.863656;stroke-linecap:round;stroke-linejoin:miter;stroke-miterlimit:4;stroke-dasharray:none;stroke-opacity:1"
       d="m 168.32133,88.55839 c -0.11958,-2.286067 -0.23917,-4.572477 -0.77727,-6.706468 -0.53809,-2.133991 -1.49481,-4.115501 -1.25574,-6.859325 0.23907,-2.743823 1.67415,-6.249587 1.9134,-10.593732 0.23925,-4.344145 -0.71747,-9.526573 -1.0763,-13.184889 -0.35883,-3.658317 -0.11965,-5.792252 0.11957,-7.926536"
       id="path1548-5"
       inkscape:path-effect="#path-effect1550-1"
       inkscape:original-d="m 168.32133,88.55839 c -0.11933,-2.28608 -0.23892,-4.57249 -0.35878,-6.85923 -0.9565,-1.98127 -1.91322,-3.96278 -2.87023,-5.944673 1.43541,-3.505572 2.8705,-7.011334 4.30534,-10.517492 -0.95649,-5.182312 -1.91322,-10.364738 -2.87022,-15.54761 0.23945,-2.133693 0.47863,-4.267628 0.71755,-6.401945"
       inkscape:export-filename="/Users/rabelmarie/Documents/inkscape/inkscape/plantes.png"
       inkscape:export-xdpi="555.69"
       inkscape:export-ydpi="555.69" />
    <path
       style="fill:none;stroke:#379634;stroke-width:0.863656;stroke-linecap:round;stroke-linejoin:miter;stroke-miterlimit:4;stroke-dasharray:none;stroke-opacity:1"
       d="m 108.08738,88.32343 c -0.11957,-1.981205 -0.23916,-3.962755 -1.01638,-5.487101 -0.77721,-1.524346 -2.21229,-2.591315 -1.97329,-4.649175 0.23899,-2.057861 2.15245,-5.106349 2.45153,-8.307231 0.29908,-3.200881 -1.01642,-6.554218 -1.55467,-9.679044 -0.53825,-3.124827 -0.29907,-6.020894 -0.4186,-8.231071 -0.11952,-2.210177 -0.59788,-3.734417 -1.07637,-5.259081"
       id="path1560"
       inkscape:path-effect="#path-effect1562"
       inkscape:original-d="m 108.08738,88.32343 c -0.11933,-1.98122 -0.23892,-3.96277 -0.35878,-5.94468 -1.43488,-1.06667 -2.86996,-2.13364 -4.30534,-3.20098 1.91379,-3.04826 3.82724,-6.096749 5.74046,-9.145635 -1.31529,-3.353136 -2.63078,-6.706475 -3.94657,-10.060221 0.23946,-2.895838 0.47864,-5.791905 0.71756,-8.688355 -0.47812,-1.523972 -0.95648,-3.048211 -1.43511,-4.572832"
       inkscape:export-filename="/Users/rabelmarie/Documents/inkscape/inkscape/plantes.png"
       inkscape:export-xdpi="555.69"
       inkscape:export-ydpi="555.69" />
    <path
       style="fill:none;stroke:#379634;stroke-width:0.863656;stroke-linecap:round;stroke-linejoin:miter;stroke-miterlimit:4;stroke-dasharray:none;stroke-opacity:1"
       d="m 118.13317,88.32343 c -0.11958,-4.420053 -0.23917,-8.840443 -1.07627,-13.260866 -0.8371,-4.420423 -2.39178,-8.840739 -2.15267,-12.270536 0.23911,-3.429797 2.27215,-5.868594 2.57122,-8.993236 0.29906,-3.124642 -1.13602,-6.935251 -1.85365,-9.602769 -0.71763,-2.667518 -0.71763,-4.191758 -0.71763,-5.716379"
       id="path1564"
       inkscape:path-effect="#path-effect1566"
       inkscape:original-d="m 118.13317,88.32343 c -0.11932,-4.42006 -0.23892,-8.84045 -0.35877,-13.261191 -1.55448,-4.420141 -3.10915,-8.84046 -4.66412,-13.261187 2.03338,-2.438554 4.06642,-4.877349 6.09923,-7.316527 -1.43488,-3.810419 -2.86996,-7.62103 -4.30534,-11.432049 2.6e-4,-1.523971 2.6e-4,-3.048211 0,-4.572832"
       inkscape:export-filename="/Users/rabelmarie/Documents/inkscape/inkscape/plantes.png"
       inkscape:export-xdpi="555.69"
       inkscape:export-ydpi="555.69" />
    <path
       style="fill:none;stroke:#379634;stroke-width:0.863656;stroke-linecap:round;stroke-linejoin:miter;stroke-miterlimit:4;stroke-dasharray:none;stroke-opacity:1"
       d="m 129.97286,88.32343 c 0,-3.04821 0,-6.09676 0.29896,-9.526442 0.29897,-3.429683 0.89692,-7.240293 1.07635,-10.212612 0.17943,-2.972319 -0.0598,-5.106267 -0.35873,-7.31648 -0.29897,-2.210213 -0.65774,-4.496585 -0.83716,-6.097097 -0.17942,-1.600512 -0.17942,-2.515055 -0.17942,-3.429955"
       id="path1568"
       inkscape:path-effect="#path-effect1570"
       inkscape:original-d="m 129.97286,88.32343 c 2.6e-4,-3.04821 2.6e-4,-6.09676 0,-9.14566 0.59824,-3.810416 1.19619,-7.621027 1.79389,-11.432045 -0.23893,-2.133693 -0.47811,-4.267641 -0.71756,-6.401958 -0.35852,-2.286116 -0.71729,-4.572488 -1.07633,-6.859242 2.6e-4,-0.914238 2.6e-4,-1.828781 0,-2.743681"
       inkscape:export-filename="/Users/rabelmarie/Documents/inkscape/inkscape/plantes.png"
       inkscape:export-xdpi="555.69"
       inkscape:export-ydpi="555.69" />
    <path
       style="fill:none;stroke:#379634;stroke-width:0.863656;stroke-linecap:round;stroke-linejoin:miter;stroke-miterlimit:4;stroke-dasharray:none;stroke-opacity:1"
       d="m 142.5301,88.32343 c -0.83699,-1.981178 -1.67413,-3.962726 -1.43506,-6.78276 0.23908,-2.820033 1.55457,-6.478213 1.97319,-11.203454 0.41863,-4.72524 -0.0597,-10.517362 -0.23914,-15.166453 -0.17941,-4.64909 -0.0598,-8.154853 0.0598,-11.661002"
       id="path1572"
       inkscape:path-effect="#path-effect1574"
       inkscape:original-d="m 142.5301,88.32343 c -0.83689,-1.98122 -1.67403,-3.96277 -2.51145,-5.94468 1.31581,-3.65799 2.63131,-7.316167 3.94656,-10.974775 -0.47811,-5.792019 -0.95647,-11.584141 -1.43511,-17.376722 0.11986,-3.505571 0.23945,-7.011334 0.35878,-10.517492"
       inkscape:export-filename="/Users/rabelmarie/Documents/inkscape/inkscape/plantes.png"
       inkscape:export-xdpi="555.69"
       inkscape:export-ydpi="555.69" />
    <path
       style="fill:none;stroke:#379634;stroke-width:0.863656;stroke-linecap:round;stroke-linejoin:miter;stroke-miterlimit:4;stroke-dasharray:none;stroke-opacity:1"
       d="m 9.9674933,88.7444 c 0,-3.04821 0,-6.09676 0.2989647,-9.526441 0.298965,-3.429681 0.896917,-7.240291 1.076346,-10.21261 0.179429,-2.972319 -0.05975,-5.106267 -0.35873,-7.31648 C 10.685098,59.478655 10.326328,57.192283 10.146911,55.591772 9.9674933,53.99126 9.9674933,53.076716 9.9674933,52.161816"
       id="path1568-4"
       inkscape:path-effect="#path-effect1570-7"
       inkscape:original-d="m 9.9674933,88.7444 c 2.6e-4,-3.04821 2.6e-4,-6.09676 0,-9.14565 0.5982397,-3.810423 1.1961897,-7.621034 1.7938907,-11.432053 -0.23893,-2.133692 -0.47811,-4.26764 -0.717561,-6.401957 -0.35852,-2.286117 -0.71729,-4.572489 -1.0763297,-6.859242 2.6e-4,-0.914238 2.6e-4,-1.828782 0,-2.743682"
       inkscape:export-filename="/Users/rabelmarie/Documents/inkscape/inkscape/plantes.png"
       inkscape:export-xdpi="555.69"
       inkscape:export-ydpi="555.69" />
    <path
       style="fill:none;stroke:#379634;stroke-width:0.863656;stroke-linecap:round;stroke-linejoin:miter;stroke-miterlimit:4;stroke-dasharray:none;stroke-opacity:1"
       d="m 22.524734,88.7444 c -0.836989,-1.981178 -1.674134,-3.962726 -1.435058,-6.78276 0.239076,-2.820033 1.554568,-6.478211 1.973193,-11.203452 0.418625,-4.72524 -0.05973,-10.517362 -0.239143,-15.166453 -0.179407,-4.64909 -0.05982,-8.154853 0.05979,-11.661002"
       id="path1572-9"
       inkscape:path-effect="#path-effect1574-4"
       inkscape:original-d="m 22.524734,88.7444 c -0.83689,-1.98122 -1.67403,-3.96277 -2.51145,-5.94468 1.31581,-3.65799 2.63131,-7.316165 3.94656,-10.974772 -0.47811,-5.79202 -0.95647,-11.584142 -1.43511,-17.376722 0.11986,-3.505572 0.23945,-7.011335 0.35878,-10.517493"
       inkscape:export-filename="/Users/rabelmarie/Documents/inkscape/inkscape/plantes.png"
       inkscape:export-xdpi="555.69"
       inkscape:export-ydpi="555.69" />
    <path
       style="fill:none;stroke:#379634;stroke-width:0.863656;stroke-linecap:round;stroke-linejoin:miter;stroke-miterlimit:4;stroke-dasharray:none;stroke-opacity:1"
       d="m 156.52245,88.32343 c -1.31527,-1.828785 -2.63079,-3.657908 -2.51135,-6.477931 0.11945,-2.820023 1.67412,-6.630634 2.03298,-10.060194 0.35887,-3.429559 -0.47826,-6.478038 -0.59793,-9.755316 -0.11966,-3.277278 0.47829,-6.783042 0.59793,-9.984005 0.11963,-3.200964 -0.23914,-6.097019 -0.41855,-8.154819 -0.17941,-2.0578 -0.17941,-3.277191 -0.17941,-4.496952"
       id="path1576"
       inkscape:path-effect="#path-effect1578"
       inkscape:original-d="m 156.52245,88.32343 c -1.31525,-1.8288 -2.63077,-3.65792 -3.94656,-5.48739 1.55501,-3.81042 3.10968,-7.621033 4.66412,-11.432065 -0.8369,-3.048274 -1.67403,-6.096753 -2.51145,-9.145639 0.59824,-3.505572 1.1962,-7.011334 1.79389,-10.517492 -0.35852,-2.895851 -0.71729,-5.791906 -1.07633,-8.688368 2.6e-4,-1.219111 2.6e-4,-2.438502 0,-3.658263"
       inkscape:export-filename="/Users/rabelmarie/Documents/inkscape/inkscape/plantes.png"
       inkscape:export-xdpi="555.69"
       inkscape:export-ydpi="555.69" />
    <path
       style="fill:none;stroke:#379634;stroke-width:0.863656;stroke-linecap:round;stroke-linejoin:miter;stroke-miterlimit:4;stroke-dasharray:none;stroke-opacity:1"
       d="m 190.24762,88.78071 c 0,-3.65792 0,-7.31618 -0.47831,-10.364733 -0.4783,-3.048553 -1.43503,-5.487335 -1.19594,-9.069505 0.23909,-3.58217 1.67418,-8.307323 2.15261,-12.194187 0.47843,-3.886864 7e-5,-6.935356 -0.47836,-9.984274"
       id="path1580"
       inkscape:path-effect="#path-effect1582"
       inkscape:original-d="m 190.24762,88.78071 c 2.6e-4,-3.65792 2.6e-4,-7.31618 0,-10.97478 -0.9565,-2.43855 -1.91322,-4.877333 -2.87023,-7.316511 1.43541,-4.725014 2.87049,-9.450168 4.30534,-14.175756 -0.47812,-3.048274 -0.95648,-6.096766 -1.43511,-9.145652"
       inkscape:export-filename="/Users/rabelmarie/Documents/inkscape/inkscape/plantes.png"
       inkscape:export-xdpi="555.69"
       inkscape:export-ydpi="555.69" />
    <path
       style="fill:none;stroke:#379634;stroke-width:0.863656;stroke-linecap:round;stroke-linejoin:miter;stroke-miterlimit:4;stroke-dasharray:none;stroke-opacity:1"
       d="m 179.48427,88.78071 c 0.35874,-2.743399 0.71751,-5.48708 0.41861,-8.306977 -0.29891,-2.819896 -1.25563,-5.715967 -1.37531,-8.764605 -0.11968,-3.048639 0.59786,-6.249555 1.01646,-8.535954 0.41859,-2.286398 0.53818,-3.658226 0.23925,-5.715992 -0.29892,-2.057766 -1.01646,-4.801396 -1.19592,-7.164093 -0.17947,-2.362697 0.1793,-4.344209 0.53813,-6.326057"
       id="path1584"
       inkscape:path-effect="#path-effect1586"
       inkscape:original-d="m 179.48427,88.78071 c 0.35904,-2.74336 0.71782,-5.48704 1.07633,-8.23108 -0.95649,-2.89584 -1.91322,-5.791908 -2.87022,-8.68837 0.71783,-3.200699 1.43538,-6.401614 2.15267,-9.602924 0.11986,-1.371535 0.23945,-2.743363 0.35878,-4.115548 -0.71731,-2.743414 -1.43485,-5.487044 -2.15267,-8.231083 0.35905,-1.981256 0.71782,-3.962767 1.07633,-5.944673"
       inkscape:export-filename="/Users/rabelmarie/Documents/inkscape/inkscape/plantes.png"
       inkscape:export-xdpi="555.69"
       inkscape:export-ydpi="555.69" />
  </g>
  <g
     inkscape:groupmode="layer"
     id="f1"
     inkscape:label="f1"
     style="display:none"
     sodipodi:insensitive="true">
    <path
       id="path3844-8"
       style="display:inline;fill:#379634;fill-opacity:1;stroke:none;stroke-width:0.298704px;stroke-linecap:butt;stroke-linejoin:miter;stroke-opacity:1"
       d="m 13.056118,35.654209 c -0.893437,1.185908 -1.238689,2.705355 -1.616442,3.945407 -0.416827,1.368349 -0.873078,2.396289 -1.329283,3.424306 0.785613,-0.611276 1.571044,-1.222743 2.632739,-1.775237 1.061693,-0.552481 2.399792,-1.046332 3.352746,-2.480014 0.952962,-1.43367 1.521112,-3.807106 2.089367,-6.180377 -1.857786,0.741816 -3.715688,1.483517 -4.833447,2.708695 -0.104801,0.114838 -0.203239,0.234556 -0.295673,0.35722 z"
       inkscape:export-filename="/Users/rabelmarie/Documents/inkscape/inkscape/plantes.png"
       inkscape:export-xdpi="555.69"
       inkscape:export-ydpi="555.69" />
    <path
       id="path2717-9-2"
       style="display:inline;fill:#379634;fill-opacity:1;stroke:none;stroke-width:0.224522px;stroke-linecap:butt;stroke-linejoin:miter;stroke-opacity:1"
       d="m 47.348667,48.189002 c 0.07408,0.118151 0.151965,0.227482 0.232808,0.326884 0.648876,0.793117 1.518268,0.902002 2.388074,1.011015 0.113642,-1.104503 0.227289,-2.208471 -0.231893,-3.193612 -0.45918,-0.985115 -1.491102,-1.851736 -2.15277,-2.261505 -0.615575,-0.381219 -0.910641,-0.367224 -1.183761,-0.325674 l -0.02,-0.03212 c -0.0037,0.01275 -0.0069,0.02473 -0.01054,0.03722 -0.01034,0.0013 -0.02062,0.0025 -0.03088,0.0038 l 0.02,0.03212 c -0.09355,0.329561 -0.171046,0.693102 -0.01916,1.543332 0.142911,0.799935 0.4891,2.031142 1.00804,2.857716 z"
       inkscape:export-filename="/Users/rabelmarie/Documents/inkscape/inkscape/plantes.png"
       inkscape:export-xdpi="555.69"
       inkscape:export-ydpi="555.69" />
    <path
       id="path2717-0-4"
       style="display:inline;fill:#379634;fill-opacity:1;stroke:none;stroke-width:0.298704px;stroke-linecap:butt;stroke-linejoin:miter;stroke-opacity:1"
       d="m 102.23972,38.076154 c 0.0947,0.143069 0.19462,0.274425 0.29978,0.391339 0.84101,0.935676 2.01195,0.935969 3.18344,0.936339 0.20483,-1.470135 0.40964,-2.939555 -0.16588,-4.158743 -0.57552,-1.219162 -1.93125,-2.188524 -2.8073,-2.618316 -0.81501,-0.399853 -1.21477,-0.33299 -1.58613,-0.233537 l -0.0256,-0.03887 c -0.005,0.01721 -0.0106,0.03377 -0.0159,0.0506 -0.0142,0.0038 -0.028,0.0076 -0.0419,0.01147 l 0.0256,0.03887 c -0.14179,0.448465 -0.26344,0.938926 -0.0973,2.031283 0.15629,1.027762 0.56759,2.588874 1.23128,3.589845 z"
       inkscape:export-filename="/Users/rabelmarie/Documents/inkscape/inkscape/plantes.png"
       inkscape:export-xdpi="555.69"
       inkscape:export-ydpi="555.69" />
    <path
       id="path2285-1-2"
       style="display:inline;fill:#379634;fill-opacity:1;stroke:none;stroke-width:0.223582px;stroke-linecap:butt;stroke-linejoin:miter;stroke-opacity:1"
       d="m 152.65314,38.32338 c -0.79297,0.0076 -1.86165,0.619994 -2.59905,1.049582 -0.76119,0.443456 -1.16927,0.692172 -1.55379,0.80989 -0.20505,0.06271 -0.40317,0.08833 -0.59826,0.09648 h -0.004 l -0.50337,-0.0051 c 0.30239,0.264023 0.60485,0.527869 0.98968,0.671549 0.38482,0.143681 0.85038,0.16698 1.64073,0.49765 0.79035,0.330658 1.90432,0.968712 2.70386,0.935242 0.79953,-0.03352 1.28466,-0.738604 1.63438,-1.188394 0.34972,-0.449828 0.5642,-0.643841 0.77888,-0.838223 -0.21468,-0.194382 -0.42916,-0.388892 -0.77888,-0.838695 -0.34972,-0.449803 -0.83485,-1.154975 -1.63438,-1.188407 -0.025,-9.3e-4 -0.0502,-0.0013 -0.0758,-0.0013 z"
       inkscape:export-filename="/Users/rabelmarie/Documents/inkscape/inkscape/plantes.png"
       inkscape:export-xdpi="555.69"
       inkscape:export-ydpi="555.69" />
    <path
       id="path2285-1-41"
       style="display:inline;fill:#379634;fill-opacity:1;stroke:none;stroke-width:0.223582px;stroke-linecap:butt;stroke-linejoin:miter;stroke-opacity:1"
       d="m 179.1527,42.635923 c -0.59869,-0.662769 -1.71798,-1.104453 -2.49397,-1.403909 -0.80103,-0.30913 -1.23616,-0.466614 -1.58564,-0.702496 -0.18633,-0.125798 -0.34822,-0.273634 -0.49877,-0.431985 l -0.003,-0.0038 -0.37488,-0.428174 c 0.0898,0.452938 0.1797,0.905813 0.39375,1.337989 0.21406,0.432188 0.55114,0.842136 0.9723,1.756437 0.42116,0.914289 0.92552,2.33195 1.54254,2.980889 0.61705,0.648888 1.3468,0.529067 1.84251,0.486548 0.49573,-0.04257 0.75727,-0.0076 1.01916,0.02791 -0.0601,-0.32677 -0.12005,-0.653464 -0.14891,-1.285643 -0.0289,-0.632179 -0.0268,-1.570046 -0.60906,-2.269152 -0.0183,-0.02179 -0.037,-0.04333 -0.0562,-0.06488 z"
       inkscape:export-filename="/Users/rabelmarie/Documents/inkscape/inkscape/plantes.png"
       inkscape:export-xdpi="555.69"
       inkscape:export-ydpi="555.69" />
  </g>
  <g
     inkscape:groupmode="layer"
     id="f2"
     inkscape:label="f2"
     style="display:none"
     sodipodi:insensitive="true">
    <path
       id="path2285-1-59"
       style="display:inline;fill:#379634;fill-opacity:1;stroke:none;stroke-width:0.223582px;stroke-linecap:butt;stroke-linejoin:miter;stroke-opacity:1"
       d="m 187.8401,44.817169 c -0.79297,0.0076 -1.86165,0.619994 -2.59905,1.049582 -0.76119,0.443456 -1.16927,0.692172 -1.55379,0.80989 -0.20505,0.06271 -0.40317,0.08833 -0.59826,0.09648 h -0.004 l -0.50337,-0.0051 c 0.30239,0.264024 0.60485,0.527869 0.98968,0.67155 0.38482,0.14368 0.85038,0.166979 1.64073,0.497649 0.79035,0.330658 1.90432,0.968712 2.70386,0.935242 0.79953,-0.03352 1.28466,-0.738604 1.63438,-1.188394 0.34972,-0.449815 0.5642,-0.643828 0.77888,-0.838223 -0.21468,-0.194382 -0.42916,-0.388892 -0.77888,-0.838695 -0.34972,-0.449803 -0.83485,-1.154975 -1.63438,-1.188407 -0.025,-9.3e-4 -0.0502,-0.0013 -0.0758,-0.0013 z"
       inkscape:export-filename="/Users/rabelmarie/Documents/inkscape/inkscape/plantes.png"
       inkscape:export-xdpi="555.69"
       inkscape:export-ydpi="555.69" />
    <path
       id="path2285-2-3"
       style="display:inline;fill:#379634;fill-opacity:1;stroke:none;stroke-width:0.298704px;stroke-linecap:butt;stroke-linejoin:miter;stroke-opacity:1"
       d="m 142.29983,35.460604 c -0.5754,-1.092306 -1.89182,-2.109222 -2.80636,-2.805651 -0.94407,-0.718912 -1.46005,-1.09604 -1.84151,-1.539508 -0.20339,-0.236493 -0.36852,-0.49143 -0.51575,-0.75539 l -0.003,-0.0051 -0.35602,-0.701171 c -0.0202,0.618134 -0.0401,1.236254 0.10692,1.87761 0.14701,0.641368 0.45999,1.303575 0.72998,2.647682 0.27,1.344106 0.49612,3.368519 1.09961,4.450233 0.60348,1.081739 1.58448,1.220729 2.23912,1.365136 0.65465,0.144395 0.98267,0.294779 1.31115,0.445164 0.0205,-0.44408 0.0413,-0.887995 0.19434,-1.712032 0.153,-0.824025 0.43814,-2.028453 -0.10528,-3.160728 -0.0171,-0.03531 -0.0344,-0.07099 -0.0527,-0.106426 z"
       inkscape:export-filename="/Users/rabelmarie/Documents/inkscape/inkscape/plantes.png"
       inkscape:export-xdpi="555.69"
       inkscape:export-ydpi="555.69" />
    <path
       id="path3507-6-3"
       style="display:inline;fill:#379634;fill-opacity:1;stroke:none;stroke-width:0.298704px;stroke-linecap:butt;stroke-linejoin:miter;stroke-opacity:1"
       d="m 134.61414,44.517661 c 0.53539,-0.848062 0.60259,-2.003904 0.76318,-3.187812 0.19033,-1.40317 0.51209,-2.845697 0.83348,-4.288429 -1.03345,0.686743 -2.06673,1.373842 -3.10423,1.877559 -1.03748,0.503716 -2.07921,0.82433 -2.58587,2.061017 -0.50668,1.236675 -0.47875,3.389078 -0.45072,5.541736 1.66621,-0.35388 3.3322,-0.707849 4.19494,-1.566478 0.1348,-0.134172 0.2501,-0.280517 0.34924,-0.43758 z"
       inkscape:export-filename="/Users/rabelmarie/Documents/inkscape/inkscape/plantes.png"
       inkscape:export-xdpi="555.69"
       inkscape:export-ydpi="555.69" />
    <path
       id="path1981-18-6"
       style="display:inline;fill:#379634;fill-opacity:1;stroke:none;stroke-width:0.161963px;stroke-linecap:butt;stroke-linejoin:miter;stroke-opacity:1"
       d="m 19.231333,43.977748 c 0.05468,0.240559 0.121728,0.467162 0.202167,0.669191 0.28603,0.718314 0.742146,1.127968 1.02094,1.439367 0.198987,0.222244 0.30758,0.394092 0.39026,0.551767 l 0.04618,0.207396 c -0.0011,-0.03938 -0.002,-0.07953 -0.0028,-0.119681 0.01608,0.03276 0.03175,0.06551 0.04718,0.09789 l -0.04858,-0.20542 c 8.72e-4,-0.198792 0.01638,-0.431641 0.08349,-0.784718 0.09393,-0.494042 0.289027,-1.222807 0.220806,-2.047851 -0.06828,-0.825044 -0.39949,-1.7467 -0.762474,-2.440873 -0.362592,-0.694364 -0.756245,-1.161527 -1.150028,-1.628995 -0.121241,0.719843 -0.242537,1.439341 -0.245284,2.312742 -0.002,0.627718 0.05732,1.334917 0.196966,1.949724 z"
       inkscape:export-filename="/Users/rabelmarie/Documents/inkscape/inkscape/plantes.png"
       inkscape:export-xdpi="555.69"
       inkscape:export-ydpi="555.69" />
  </g>
  <g
     inkscape:groupmode="layer"
     id="f3"
     inkscape:label="f3"
     style="display:none"
     sodipodi:insensitive="true">
    <path
       id="path3507-6-5"
       style="display:inline;fill:#379634;fill-opacity:1;stroke:none;stroke-width:0.298704px;stroke-linecap:butt;stroke-linejoin:miter;stroke-opacity:1"
       d="m 171.33373,42.007593 c 0.19729,-1.059078 -0.13195,-2.139441 -0.38635,-3.296341 -0.30152,-1.37114 -0.49765,-2.849852 -0.69419,-4.328539 -0.70136,1.186381 -1.40247,2.372965 -2.16924,3.396305 -0.76676,1.023339 -1.59912,1.883689 -1.63938,3.277872 -0.0402,1.394197 0.71106,3.322176 1.46256,5.250335 1.38495,-1.232609 2.76967,-2.465166 3.25893,-3.713184 0.0764,-0.195007 0.13117,-0.39032 0.16769,-0.586448 z"
       inkscape:export-filename="/Users/rabelmarie/Documents/inkscape/inkscape/plantes.png"
       inkscape:export-xdpi="555.69"
       inkscape:export-ydpi="555.69" />
    <path
       id="path2717-0-9"
       style="display:inline;fill:#379634;fill-opacity:1;stroke:none;stroke-width:0.298704px;stroke-linecap:butt;stroke-linejoin:miter;stroke-opacity:1"
       d="m 180.7343,39.516388 c -0.10984,0.124269 -0.21036,0.254872 -0.29942,0.391798 -0.71278,1.095058 -0.6836,2.587026 -0.65449,4.079694 1.15823,0.22408 2.31591,0.448146 3.25771,-0.315771 0.94179,-0.763916 1.66806,-2.515651 1.98317,-3.642662 0.29316,-1.048487 0.23068,-1.556167 0.14335,-2.026834 l 0.0299,-0.03352 c -0.0136,-0.0064 -0.0267,-0.01275 -0.0401,-0.01899 -0.003,-0.01797 -0.006,-0.03556 -0.01,-0.05302 l -0.0299,0.03352 c -0.3553,-0.169401 -0.74304,-0.312087 -1.59566,-0.07303 -0.80219,0.224946 -2.01631,0.788197 -2.78474,1.658973 z"
       inkscape:export-filename="/Users/rabelmarie/Documents/inkscape/inkscape/plantes.png"
       inkscape:export-xdpi="555.69"
       inkscape:export-ydpi="555.69" />
    <path
       id="path3844-9"
       style="display:inline;fill:#379634;fill-opacity:1;stroke:none;stroke-width:0.23007px;stroke-linecap:butt;stroke-linejoin:miter;stroke-opacity:1"
       d="m 36.915354,40.406205 c 0.219511,-1.213184 -0.03349,-2.376814 -0.175852,-3.373426 -0.157089,-1.099685 -0.179446,-1.995748 -0.201857,-2.891849 -0.330443,0.784208 -0.660704,1.568441 -1.194387,2.449082 -0.533692,0.88064 -1.270787,1.857968 -1.451214,3.262476 -0.180396,1.404494 0.195527,3.236258 0.571378,5.067971 1.005478,-1.393674 2.011074,-2.787335 2.368048,-4.135852 0.03393,-0.126308 0.06112,-0.252922 0.08415,-0.378313 z"
       inkscape:export-filename="/Users/rabelmarie/Documents/inkscape/inkscape/plantes.png"
       inkscape:export-xdpi="555.69"
       inkscape:export-ydpi="555.69" />
  </g>
  <g
     inkscape:groupmode="layer"
     id="f4"
     inkscape:label="f4"
     style="display:none"
     sodipodi:insensitive="true">
    <path
       id="path2717-0-7"
       style="display:inline;fill:#379634;fill-opacity:1;stroke:none;stroke-width:0.298704px;stroke-linecap:butt;stroke-linejoin:miter;stroke-opacity:1"
       d="m 190.3447,35.554118 c -0.11447,0.117386 -0.21987,0.241464 -0.31407,0.372692 -0.75387,1.049391 -0.78189,2.541397 -0.80999,4.034091 1.14827,0.295888 2.29598,0.591737 3.26592,-0.11267 0.96993,-0.704383 1.76244,-2.408831 2.12035,-3.514889 0.33297,-1.028999 0.29002,-1.539967 0.22082,-2.015503 l 0.0311,-0.03161 c -0.0133,-0.0064 -0.0262,-0.01428 -0.0393,-0.02154 -0.002,-0.0181 -0.005,-0.03594 -0.008,-0.05366 l -0.0311,0.03161 c -0.34838,-0.191298 -0.7302,-0.357946 -1.59095,-0.172218 -0.80986,0.174754 -2.0441,0.661774 -2.84498,1.483696 z"
       inkscape:export-filename="/Users/rabelmarie/Documents/inkscape/inkscape/plantes.png"
       inkscape:export-xdpi="555.69"
       inkscape:export-ydpi="555.69" />
    <path
       id="path2717-0-1"
       style="display:inline;fill:#379634;fill-opacity:1;stroke:none;stroke-width:0.298704px;stroke-linecap:butt;stroke-linejoin:miter;stroke-opacity:1"
       d="m 156.89272,29.633266 c -0.0979,0.139526 -0.18609,0.283882 -0.26227,0.432902 -0.60976,1.191836 -0.4468,2.669745 -0.28383,4.148355 1.17073,0.05366 2.34092,0.107318 3.20794,-0.78891 0.867,-0.89628 1.4312,-2.742446 1.64304,-3.908025 0.19708,-1.084353 0.0894,-1.579593 -0.0396,-2.034418 l 0.0266,-0.03773 c -0.014,-0.0038 -0.0277,-0.0089 -0.0415,-0.013 -0.005,-0.01733 -0.01,-0.03441 -0.0145,-0.05136 l -0.0266,0.03773 c -0.36818,-0.116494 -0.76618,-0.201635 -1.59173,0.160237 -0.77672,0.340484 -1.93228,1.077151 -2.61747,2.054288 z"
       inkscape:export-filename="/Users/rabelmarie/Documents/inkscape/inkscape/plantes.png"
       inkscape:export-xdpi="555.69"
       inkscape:export-ydpi="555.69" />
    <path
       id="path3844-5-6"
       style="display:inline;fill:#379634;fill-opacity:1;stroke:none;stroke-width:0.298704px;stroke-linecap:butt;stroke-linejoin:miter;stroke-opacity:1"
       d="m 121.69278,40.041874 c 0.44544,-1.542963 0.28376,-3.111365 0.23975,-4.440445 -0.0486,-1.466553 0.0461,-2.641411 0.1406,-3.816295 -0.52742,0.961434 -1.05461,1.922971 -1.85345,2.971648 -0.79883,1.048665 -1.86933,2.184866 -2.29136,3.985238 -0.42202,1.800371 -0.19592,4.265027 0.0301,6.729581 1.46858,-1.628918 2.93731,-3.257798 3.5759,-4.951387 0.0599,-0.158759 0.11239,-0.318741 0.15852,-0.47834 z"
       inkscape:export-filename="/Users/rabelmarie/Documents/inkscape/inkscape/plantes.png"
       inkscape:export-xdpi="555.69"
       inkscape:export-ydpi="555.69" />
    <path
       id="path3507-0-4"
       style="display:inline;fill:#379634;fill-opacity:1;stroke:none;stroke-width:0.223582px;stroke-linecap:butt;stroke-linejoin:miter;stroke-opacity:1"
       d="m 54.977882,36.688892 c 0.29371,-0.747705 0.214334,-1.617218 0.199442,-2.52855 -0.01765,-1.080108 0.05552,-2.218986 0.128398,-3.357927 -0.672278,0.740898 -1.344399,1.482013 -2.039887,2.088535 -0.695469,0.606535 -1.414307,1.078668 -1.644187,2.107131 -0.229868,1.028476 0.02883,2.613103 0.287647,4.197909 1.167368,-0.637697 2.334572,-1.275408 2.864185,-2.104811 0.08275,-0.129609 0.150018,-0.26382 0.204377,-0.402313 z"
       inkscape:export-filename="/Users/rabelmarie/Documents/inkscape/inkscape/plantes.png"
       inkscape:export-xdpi="555.69"
       inkscape:export-ydpi="555.69" />
    <path
       id="path2717-5-5"
       style="display:inline;fill:#379634;fill-opacity:1;stroke:none;stroke-width:0.298704px;stroke-linecap:butt;stroke-linejoin:miter;stroke-opacity:1"
       d="m 23.977494,30.236933 c -0.108644,0.126054 -0.207908,0.25811 -0.295655,0.396412 -0.70226,1.106032 -0.658847,2.597439 -0.615472,4.089547 1.160277,0.206095 2.320012,0.412178 3.254441,-0.366281 0.934429,-0.778473 1.643916,-2.541347 1.948242,-3.673163 0.283126,-1.052948 0.215804,-1.559634 0.123984,-2.028899 l 0.02953,-0.03403 c -0.01334,-0.0064 -0.02683,-0.01274 -0.04022,-0.01848 -0.0035,-0.01759 -0.0068,-0.03543 -0.01032,-0.05289 l -0.02953,0.03403 c -0.356891,-0.16387 -0.745968,-0.300527 -1.596237,-0.04831 -0.799979,0.237373 -2.008633,0.819424 -2.768699,1.702052 z"
       inkscape:export-filename="/Users/rabelmarie/Documents/inkscape/inkscape/plantes.png"
       inkscape:export-xdpi="555.69"
       inkscape:export-ydpi="555.69" />
  </g>
  <g
     inkscape:groupmode="layer"
     id="f5"
     inkscape:label="f5"
     style="display:none"
     sodipodi:insensitive="true">
    <path
       id="path3844-4-61"
       style="display:inline;fill:#379634;fill-opacity:1;stroke:none;stroke-width:0.23007px;stroke-linecap:butt;stroke-linejoin:miter;stroke-opacity:1"
       d="m 176.28148,27.620235 c -0.81477,-0.686793 -1.75854,-0.792097 -2.54082,-0.971019 -0.86321,-0.197441 -1.52958,-0.484445 -2.19601,-0.771398 0.46066,0.669052 0.92141,1.337899 1.3818,2.283364 0.46038,0.945451 0.92061,2.167621 1.88966,2.874731 0.96907,0.707071 2.44691,0.899516 3.92469,1.092051 -0.67226,-1.688351 -1.34449,-3.376829 -2.21059,-4.27511 -0.0809,-0.08476 -0.16448,-0.161511 -0.24857,-0.232912 z"
       inkscape:export-filename="/Users/rabelmarie/Documents/inkscape/inkscape/plantes.png"
       inkscape:export-xdpi="555.69"
       inkscape:export-ydpi="555.69" />
    <path
       id="path2977-3-2"
       style="display:inline;fill:#379634;fill-opacity:1;stroke:none;stroke-width:0.298704px;stroke-linecap:butt;stroke-linejoin:miter;stroke-opacity:1"
       d="m 113.84553,25.576603 c -0.16661,-0.351293 -0.3663,-0.689024 -0.61857,-0.982975 -0.67268,-0.783889 -1.72216,-1.25504 -2.77211,-1.725746 -6.3e-4,1.418604 -10e-4,2.836954 0.42584,3.800937 0.42717,0.963996 1.28191,1.474302 1.95498,1.859218 0.19854,0.113562 0.44319,0.613863 0.57983,0.777133 0.19606,0.234314 1.10479,1.809918 0.73003,1.152503 l 1.04243,2.072081 c 0.0897,-1.103471 0.17949,-2.207426 0.0635,-3.03428 -0.11594,-0.826905 -0.43777,-1.37504 -0.74682,-2.198032 -0.19317,-0.514346 -0.38101,-1.13559 -0.65912,-1.720788 z"
       sodipodi:nodetypes="sscssscccsss"
       inkscape:export-filename="/Users/rabelmarie/Documents/inkscape/inkscape/plantes.png"
       inkscape:export-xdpi="555.69"
       inkscape:export-ydpi="555.69" />
    <path
       id="path2717-9-7"
       style="display:inline;fill:#379634;fill-opacity:1;stroke:none;stroke-width:0.273804px;stroke-linecap:butt;stroke-linejoin:miter;stroke-opacity:1"
       d="m 143.92969,28.598086 c -0.1004,0.132796 -0.1917,0.270307 -0.27345,0.410343 -0.65018,1.125125 -0.61645,2.48227 -0.58274,3.840053 1.06582,0.001 2.13116,0.0025 2.99344,-0.860872 0.86226,-0.863026 1.52182,-2.590124 1.80628,-3.674514 0.26466,-1.008874 0.20486,-1.461442 0.12238,-1.875838 l 0.0273,-0.03581 c -0.0121,-0.0038 -0.0245,-0.0064 -0.037,-0.0102 -0.004,-0.0153 -0.006,-0.03123 -0.009,-0.04678 l -0.0273,0.03581 c -0.32743,-0.09228 -0.68456,-0.154362 -1.46729,0.213768 -0.73643,0.346385 -1.84999,1.074041 -2.55241,2.004185 z"
       inkscape:export-filename="/Users/rabelmarie/Documents/inkscape/inkscape/plantes.png"
       inkscape:export-xdpi="555.69"
       inkscape:export-ydpi="555.69" />
  </g>
  <g
     inkscape:groupmode="layer"
     id="f6"
     inkscape:label="f6"
     style="display:none"
     sodipodi:insensitive="true">
    <path
       id="path2285-1-53"
       style="display:inline;fill:#379634;fill-opacity:1;stroke:none;stroke-width:0.223582px;stroke-linecap:butt;stroke-linejoin:miter;stroke-opacity:1"
       d="m 187.88693,28.053775 c -0.63151,-0.611289 -1.77112,-0.958452 -2.56085,-1.192396 -0.81521,-0.24149 -1.25751,-0.362267 -1.61837,-0.568426 -0.19241,-0.109994 -0.36155,-0.243937 -0.51993,-0.389363 l -0.003,-0.0025 -0.39611,-0.395927 c 0.11289,0.444462 0.22592,0.888836 0.46176,1.302199 0.23583,0.413363 0.59328,0.794251 1.06058,1.671374 0.46731,0.87711 1.04353,2.249562 1.69262,2.845518 0.64911,0.595918 1.37113,0.415339 1.86358,0.331474 0.49247,-0.08387 0.75527,-0.07048 1.01841,-0.05736 -0.0768,-0.321035 -0.15342,-0.642019 -0.21476,-1.270425 -0.0613,-0.628406 -0.10749,-1.564426 -0.72451,-2.213352 -0.0194,-0.02027 -0.0391,-0.04015 -0.0594,-0.06003 z"
       inkscape:export-filename="/Users/rabelmarie/Documents/inkscape/inkscape/plantes.png"
       inkscape:export-xdpi="555.69"
       inkscape:export-ydpi="555.69" />
    <path
       id="path2977-3-6"
       style="display:inline;fill:#379634;fill-opacity:1;stroke:none;stroke-width:0.298704px;stroke-linecap:butt;stroke-linejoin:miter;stroke-opacity:1"
       d="m 164.80617,29.913999 c 0.10749,0.386955 0.24926,0.76927 0.44957,1.122271 0.53416,0.941283 1.48703,1.673578 2.44045,2.405542 0.22604,-1.389047 0.45207,-2.777801 0.18694,-3.8321 -0.26518,-1.05426 -1.02107,-1.774638 -1.61903,-2.325309 -0.1764,-0.162429 -0.33649,-0.71556 -0.44433,-0.910707 -0.1548,-0.280058 -0.7943,-2.057589 -0.53177,-1.31706 l -0.69157,-2.298238 c -0.26314,1.057472 -0.52653,2.115377 -0.5443,2.955015 -0.0179,0.839689 0.21019,1.459556 0.38159,2.345396 0.10751,0.553527 0.193,1.210317 0.37201,1.855267 z"
       sodipodi:nodetypes="sscssscccsss"
       inkscape:export-filename="/Users/rabelmarie/Documents/inkscape/inkscape/plantes.png"
       inkscape:export-xdpi="555.69"
       inkscape:export-ydpi="555.69" />
    <path
       id="path2285-2-9"
       style="display:inline;fill:#379634;fill-opacity:1;stroke:none;stroke-width:0.298704px;stroke-linecap:butt;stroke-linejoin:miter;stroke-opacity:1"
       d="m 130.23149,27.274946 c -0.87049,-0.70711 -2.39626,-0.966851 -3.45311,-1.1381 -1.09094,-0.176781 -1.68224,-0.258926 -2.17113,-0.470527 -0.26068,-0.112926 -0.4921,-0.262163 -0.70996,-0.42885 l -0.004,-0.0038 -0.54656,-0.460726 c 0.17579,0.576672 0.35177,1.153216 0.68801,1.665842 0.33626,0.512626 0.83115,0.959612 1.50092,2.053358 0.66978,1.093745 1.51316,2.833244 2.40606,3.516316 0.89291,0.683097 1.83545,0.309653 2.48066,0.1077 0.64523,-0.20189 0.99305,-0.231549 1.34129,-0.26145 -0.12073,-0.417391 -0.24118,-0.834756 -0.35995,-1.667907 -0.11876,-0.83315 -0.23599,-2.082315 -1.08974,-2.842383 -0.0267,-0.02358 -0.0538,-0.04754 -0.0817,-0.07061 z"
       inkscape:export-filename="/Users/rabelmarie/Documents/inkscape/inkscape/plantes.png"
       inkscape:export-xdpi="555.69"
       inkscape:export-ydpi="555.69" />
    <path
       id="path2285-2-04"
       style="display:inline;fill:#379634;fill-opacity:1;stroke:none;stroke-width:0.298704px;stroke-linecap:butt;stroke-linejoin:miter;stroke-opacity:1"
       d="m 49.100472,27.505258 c -0.684811,-0.984453 -2.09607,-1.767921 -3.075461,-2.302278 -1.010995,-0.551589 -1.561898,-0.83742 -1.98645,-1.21191 -0.226371,-0.199722 -0.416756,-0.424222 -0.590362,-0.660716 l -0.0034,-0.0051 -0.426372,-0.634218 c 0.04487,0.61603 0.08994,1.231984 0.302905,1.842546 0.212965,0.610563 0.592597,1.21349 1.001144,2.499528 0.408556,1.286025 0.844992,3.253733 1.556519,4.222929 0.711527,0.969196 1.698293,0.93978 2.362207,0.97135 0.663928,0.03161 1.004775,0.124652 1.346082,0.217758 -0.02622,-0.443621 -0.05217,-0.887077 0.01302,-1.729774 0.06519,-0.842697 0.221439,-2.084903 -0.435868,-3.114424 -0.02063,-0.03212 -0.0415,-0.06449 -0.0634,-0.09648 z"
       inkscape:export-filename="/Users/rabelmarie/Documents/inkscape/inkscape/plantes.png"
       inkscape:export-xdpi="555.69"
       inkscape:export-ydpi="555.69" />
  </g>
  <g
     inkscape:groupmode="layer"
     id="f7"
     inkscape:label="f7"
     style="display:none"
     sodipodi:insensitive="true">
    <path
       id="path2285-2-0"
       style="display:inline;fill:#379634;fill-opacity:1;stroke:none;stroke-width:0.298704px;stroke-linecap:butt;stroke-linejoin:miter;stroke-opacity:1"
       d="m 8.118903,20.069012 c -1.0001442,-0.32561 -2.5133268,0.03441 -3.5593349,0.292014 -1.079754,0.265922 -1.6616367,0.423037 -2.177921,0.416422 -0.2752997,-0.0038 -0.5317103,-0.0534 -0.7795057,-0.125034 l -0.00503,-0.0013 -0.63206674,-0.220345 c 0.30819514,0.47797 0.61652664,0.955737 1.06149254,1.309043 0.444966,0.353294 1.0245673,0.581159 1.9286706,1.353933 0.9041077,0.772763 2.1312287,2.089989 3.1467807,2.383863 C 8.117538,25.771494 8.921596,25.041838 9.4851773,24.593437 10.04876,24.145049 10.371948,23.978541 10.69549,23.811638 10.478595,23.463099 10.261988,23.11447 9.9451843,22.370143 9.6283783,21.625842 9.211191,20.485664 8.213993,20.103081 c -0.03119,-0.01147 -0.06273,-0.02371 -0.09493,-0.03454 z"
       inkscape:export-filename="/Users/rabelmarie/Documents/inkscape/inkscape/plantes.png"
       inkscape:export-xdpi="555.69"
       inkscape:export-ydpi="555.69" />
    <path
       id="path1981-18-63"
       style="display:inline;fill:#379634;fill-opacity:1;stroke:none;stroke-width:0.166188px;stroke-linecap:butt;stroke-linejoin:miter;stroke-opacity:1"
       d="m 20.294678,22.050268 c 0.177511,0.02269 0.351431,0.02269 0.51544,-0.0051 0.583147,-0.100817 1.042438,-0.560204 1.362177,-0.816224 0.228215,-0.182746 0.385092,-0.261959 0.521696,-0.311386 l 0.152589,0.02141 c -0.02566,-0.01466 -0.05168,-0.02944 -0.07774,-0.04474 0.02794,-0.0089 0.05564,-0.01695 0.08303,-0.02498 l -0.152441,-0.01619 c -0.126779,-0.08183 -0.269,-0.197658 -0.465791,-0.433004 -0.275354,-0.329345 -0.657093,-0.892736 -1.214304,-1.133996 -0.557209,-0.241286 -1.28993,-0.161448 -1.890949,0.05519 -0.600934,0.215552 -1.069982,0.565927 -1.539288,0.91634 0.407973,0.45847 0.815699,0.916851 1.373126,1.275077 0.400652,0.257473 0.878607,0.463199 1.332236,0.521127 z"
       inkscape:export-filename="/Users/rabelmarie/Documents/inkscape/inkscape/plantes.png"
       inkscape:export-xdpi="555.69"
       inkscape:export-ydpi="555.69" />
    <path
       id="path2285-1-5"
       style="display:inline;fill:#379634;fill-opacity:1;stroke:none;stroke-width:0.223582px;stroke-linecap:butt;stroke-linejoin:miter;stroke-opacity:1"
       d="m 108.36987,22.662118 c 0.31279,-0.928767 0.30173,-2.422099 0.28895,-3.455354 -0.0132,-1.066598 -0.0281,-1.642811 0.0416,-2.138931 0.037,-0.264598 0.0984,-0.5061 0.17082,-0.737126 l 0.002,-0.0051 0.20571,-0.585568 c -0.31111,0.247034 -0.62211,0.494208 -0.87983,0.885789 -0.2577,0.391556 -0.4613,0.925709 -1.01616,1.715614 -0.55484,0.78993 -1.46047,1.834261 -1.75733,2.781077 -0.29683,0.946802 0.0151,1.796139 0.198,2.38492 0.18289,0.588805 0.23622,0.917067 0.28974,1.245685 0.22585,-0.172587 0.45172,-0.344882 0.91531,-0.572606 0.46361,-0.227725 1.16508,-0.51102 1.51001,-1.430955 0.0108,-0.02881 0.021,-0.05812 0.0313,-0.08807 z"
       inkscape:export-filename="/Users/rabelmarie/Documents/inkscape/inkscape/plantes.png"
       inkscape:export-xdpi="555.69"
       inkscape:export-ydpi="555.69" />
    <path
       id="path2285-1-20"
       style="display:inline;fill:#379634;fill-opacity:1;stroke:none;stroke-width:0.223582px;stroke-linecap:butt;stroke-linejoin:miter;stroke-opacity:1"
       d="m 182.09429,17.506024 c 0.3745,-0.890887 0.46455,-2.379885 0.52182,-3.410681 0.0591,-1.064061 0.0833,-1.639765 0.18633,-2.126377 0.055,-0.25946 0.13224,-0.493379 0.22006,-0.715585 l 0.002,-0.0051 0.24458,-0.560753 c -0.32667,0.211882 -0.65325,0.423942 -0.93651,0.785711 -0.28326,0.361744 -0.52228,0.871502 -1.12854,1.597425 -0.60626,0.725947 -1.57923,1.666785 -1.93909,2.57739 -0.35982,0.910631 -0.10652,1.791105 0.0358,2.397819 0.14233,0.606713 0.17324,0.939614 0.20432,1.272909 0.23669,-0.147109 0.47338,-0.293924 0.95067,-0.4698 0.4773,-0.175876 1.19533,-0.380952 1.60126,-1.259527 0.0126,-0.02753 0.0249,-0.05557 0.0372,-0.08425 z"
       inkscape:export-filename="/Users/rabelmarie/Documents/inkscape/inkscape/plantes.png"
       inkscape:export-xdpi="555.69"
       inkscape:export-ydpi="555.69" />
    <path
       id="path1981-5-5"
       style="display:inline;fill:#379634;fill-opacity:1;stroke:none;stroke-width:0.215365px;stroke-linecap:butt;stroke-linejoin:miter;stroke-opacity:1"
       d="m 152.83152,21.209547 c 0.11289,0.267249 0.24158,0.51334 0.38606,0.725285 0.51369,0.75358 1.22823,1.077304 1.67362,1.347943 0.31791,0.193184 0.49858,0.358914 0.63998,0.517112 l 0.0959,0.230758 c -0.007,-0.04665 -0.0143,-0.09393 -0.021,-0.141794 0.0278,0.03327 0.055,0.06666 0.0818,0.09967 L 155.58878,23.761 c -0.027,-0.237513 -0.0378,-0.520961 0.009,-0.966519 0.0648,-0.623449 0.24188,-1.563611 0.0264,-2.52335 -0.21551,-0.959752 -0.82323,-1.93954 -1.44422,-2.63644 -0.62044,-0.697283 -1.25327,-1.112202 -1.88631,-1.527477 -0.0721,0.902779 -0.1442,1.805151 -0.0239,2.848246 0.0865,0.749718 0.27234,1.572073 0.56074,2.255094 z"
       inkscape:export-filename="/Users/rabelmarie/Documents/inkscape/inkscape/plantes.png"
       inkscape:export-xdpi="555.69"
       inkscape:export-ydpi="555.69" />
  </g>
  <g
     inkscape:groupmode="layer"
     id="f8"
     inkscape:label="f8"
     style="display:none"
     sodipodi:insensitive="true">
    <path
       id="path2977-3-3"
       style="display:inline;fill:#379634;fill-opacity:1;stroke:none;stroke-width:0.298704px;stroke-linecap:butt;stroke-linejoin:miter;stroke-opacity:1"
       d="m 20.02329,15.042146 c -0.249322,-0.259869 -0.526236,-0.492807 -0.841185,-0.662067 -0.83984,-0.451409 -1.952514,-0.447229 -3.065526,-0.442436 0.372256,1.336905 0.744394,2.673581 1.400252,3.399503 0.655858,0.72591 1.595331,0.841779 2.330667,0.917067 0.216918,0.02218 0.578943,0.389172 0.750585,0.484675 0.246326,0.137065 1.516668,1.233641 0.990769,0.774215 l 1.526812,1.507262 c -0.205558,-1.077992 -0.411071,-2.15652 -0.737701,-2.886036 -0.326533,-0.72967 -0.773881,-1.108697 -1.281383,-1.752168 -0.317197,-0.40216 -0.657462,-0.907304 -1.073313,-1.339952 z"
       sodipodi:nodetypes="sscssscccsss"
       inkscape:export-filename="/Users/rabelmarie/Documents/inkscape/inkscape/plantes.png"
       inkscape:export-xdpi="555.69"
       inkscape:export-ydpi="555.69" />
    <path
       id="path2717-5-8"
       style="display:inline;fill:#379634;fill-opacity:1;stroke:none;stroke-width:0.298704px;stroke-linecap:butt;stroke-linejoin:miter;stroke-opacity:1"
       d="m 30.777231,23.232341 c 0.105928,0.129711 0.216004,0.247072 0.330159,0.349381 0.912946,0.818824 2.077534,0.663533 3.242672,0.508254 0.08348,-1.48933 0.166979,-2.977983 -0.505125,-4.114031 -0.672104,-1.136062 -2.099723,-1.920001 -3.006154,-2.231056 -0.843276,-0.289388 -1.235399,-0.169771 -1.59659,-0.02154 l -0.0286,-0.03531 c -0.004,0.01733 -0.0078,0.03492 -0.01174,0.05239 -0.0135,0.0051 -0.02726,0.01147 -0.0407,0.0167 l 0.02859,0.0353 c -0.104335,0.464856 -0.185205,0.968802 0.06934,2.033144 0.239498,1.001391 0.776245,2.499349 1.518192,3.406691 z"
       inkscape:export-filename="/Users/rabelmarie/Documents/inkscape/inkscape/plantes.png"
       inkscape:export-xdpi="555.69"
       inkscape:export-ydpi="555.69" />
    <path
       id="path2717-9-5"
       style="display:inline;fill:#379634;fill-opacity:1;stroke:none;stroke-width:0.224522px;stroke-linecap:butt;stroke-linejoin:miter;stroke-opacity:1"
       d="m 119.62197,17.387542 c -0.11865,4.71e-4 -0.23428,0.0102 -0.34563,0.02906 -0.89083,0.154374 -1.49843,0.954373 -2.10635,1.754717 0.60792,0.80033 1.21552,1.600342 2.10635,1.754716 0.89083,0.154374 2.06506,-0.336597 2.72832,-0.742147 0.61706,-0.377306 0.79197,-0.68051 0.9363,-0.978947 h 0.0321 c -0.005,-0.01147 -0.0109,-0.0223 -0.0163,-0.03365 0.005,-0.01147 0.0109,-0.02243 0.0163,-0.03365 h -0.0321 c -0.1443,-0.298335 -0.31946,-0.601768 -0.9363,-0.978947 -0.58036,-0.354861 -1.55211,-0.775056 -2.38269,-0.771169 z"
       inkscape:export-filename="/Users/rabelmarie/Documents/inkscape/inkscape/plantes.png"
       inkscape:export-xdpi="555.69"
       inkscape:export-ydpi="555.69" />
    <path
       id="path3844-4-50"
       style="display:inline;fill:#379634;fill-opacity:1;stroke:none;stroke-width:0.23007px;stroke-linecap:butt;stroke-linejoin:miter;stroke-opacity:1"
       d="m 140.1792,11.444602 c -0.86698,-0.573638 -1.81421,-0.551716 -2.60691,-0.624672 -0.87472,-0.08055 -1.5611,-0.276489 -2.24753,-0.472413 0.51337,0.603514 1.02681,1.206812 1.56274,2.085234 0.53593,0.878423 1.09456,2.032034 2.11663,2.605176 1.02209,0.573103 2.50761,0.56617 3.99308,0.559325 -0.80799,-1.588757 -1.61596,-3.177641 -2.55144,-3.954699 -0.0875,-0.07341 -0.17691,-0.138544 -0.26644,-0.198269 z"
       inkscape:export-filename="/Users/rabelmarie/Documents/inkscape/inkscape/plantes.png"
       inkscape:export-xdpi="555.69"
       inkscape:export-ydpi="555.69" />
    <path
       id="path3844-4-7"
       style="display:inline;fill:#379634;fill-opacity:1;stroke:none;stroke-width:0.23007px;stroke-linecap:butt;stroke-linejoin:miter;stroke-opacity:1"
       d="m 168.61387,14.014855 c -0.50073,1.06902 -0.53977,2.275487 -0.64395,3.279721 -0.11496,1.108135 -0.30919,1.969785 -0.50338,2.831511 0.50315,-0.617356 1.00612,-1.234801 1.72592,-1.864545 0.71979,-0.629732 1.65645,-1.272018 2.16599,-2.538402 0.50951,-1.26641 0.59223,-3.156867 0.67502,-5.047247 -1.29227,0.933738 -2.58464,1.867439 -3.24875,3.011555 -0.0627,0.106935 -0.119,0.216852 -0.17109,0.327216 z"
       inkscape:export-filename="/Users/rabelmarie/Documents/inkscape/inkscape/plantes.png"
       inkscape:export-xdpi="555.69"
       inkscape:export-ydpi="555.69" />
  </g>
  <g
     inkscape:groupmode="layer"
     id="f9"
     inkscape:label="f9"
     style="display:none"
     sodipodi:insensitive="true">
    <path
       id="path1981-10-6"
       style="display:inline;fill:#379634;fill-opacity:1;stroke:none;stroke-width:0.298704px;stroke-linecap:butt;stroke-linejoin:miter;stroke-opacity:1"
       d="m 50.895243,11.46901 c -0.162289,0.387668 -0.294177,0.781149 -0.383921,1.169633 -0.319126,1.381234 -0.106147,2.702717 -0.03582,3.583472 0.0502,0.628636 0.028,1.032236 -0.01522,1.371662 l -0.140641,0.332876 c 0.03719,-0.0492 0.07515,-0.09891 0.113713,-0.14832 -0.01047,0.06844 -0.02147,0.136313 -0.03242,0.203215 l 0.136623,-0.334099 c 0.196194,-0.236468 0.445534,-0.487045 0.882384,-0.787547 0.611261,-0.420463 1.589196,-0.937715 2.306627,-2.049967 0.717441,-1.11224 1.174457,-2.81976 1.366729,-4.311855 0.192414,-1.4920181 0.120046,-2.7685611 0.04784,-4.0456891 -0.869636,0.6411 -1.738962,1.281704 -2.59948,2.32253 -0.618495,0.7481 -1.232364,1.7029191 -1.647228,2.6935411 z"
       inkscape:export-filename="/Users/rabelmarie/Documents/inkscape/inkscape/plantes.png"
       inkscape:export-xdpi="555.69"
       inkscape:export-ydpi="555.69" />
    <path
       id="path2717-9-9"
       style="display:inline;fill:#379634;fill-opacity:1;stroke:none;stroke-width:0.224522px;stroke-linecap:butt;stroke-linejoin:miter;stroke-opacity:1"
       d="m 191.08564,18.153778 c -0.064,0.127456 -0.12015,0.256555 -0.16801,0.386075 -0.3806,1.038112 -0.18198,2.122375 0.0167,3.207174 0.8571,-0.217962 1.71381,-0.435758 2.29806,-1.30666 0.58424,-0.870916 0.89631,-2.394964 0.988,-3.325261 0.0853,-0.865499 -0.02,-1.21711 -0.13865,-1.533365 l 0.0174,-0.03441 c -0.0103,-8.54e-4 -0.0206,-3.95e-4 -0.031,-7.52e-4 -0.005,-0.01147 -0.009,-0.02383 -0.0134,-0.03569 l -0.0174,0.03441 c -0.27492,-0.0064 -0.56992,0.01644 -1.15274,0.473089 -0.54835,0.429678 -1.35175,1.243341 -1.79898,2.135401 z"
       inkscape:export-filename="/Users/rabelmarie/Documents/inkscape/inkscape/plantes.png"
       inkscape:export-xdpi="555.69"
       inkscape:export-ydpi="555.69" />
    <path
       id="path1981-5-1"
       style="display:inline;fill:#379634;fill-opacity:1;stroke:none;stroke-width:0.185466px;stroke-linecap:butt;stroke-linejoin:miter;stroke-opacity:1"
       d="m 114.97383,8.3943519 c -0.17601,-0.134159 -0.35638,-0.243771 -0.5366,-0.31925 -0.64078,-0.268396 -1.28128,-0.105916 -1.70435,-0.0557 -0.30199,0.03594 -0.49298,0.01504 -0.65231,-0.02256 l -0.15085,-0.116749 c 0.0215,0.03046 0.0431,0.06143 0.0646,0.09304 -0.0321,-0.0089 -0.0637,-0.01835 -0.095,-0.02779 l 0.15207,0.112543 c 0.10221,0.160441 0.20833,0.363988 0.32831,0.719563 0.16788,0.497535 0.36244,1.2923851 0.85409,1.8809231 0.49164,0.588563 1.28027,0.971363 1.98079,1.137514 0.70023,0.166711 1.31188,0.117641 1.9238,0.0687 -0.25926,-0.708167 -0.5183,-1.416068 -0.96838,-2.1198381 -0.32349,-0.50582 -0.74565,-1.009434 -1.19539,-1.352353 z"
       inkscape:export-filename="/Users/rabelmarie/Documents/inkscape/inkscape/plantes.png"
       inkscape:export-xdpi="555.69"
       inkscape:export-ydpi="555.69" />
    <path
       id="path3844-9-0"
       style="display:inline;fill:#379634;fill-opacity:1;stroke:none;stroke-width:0.23007px;stroke-linecap:butt;stroke-linejoin:miter;stroke-opacity:1"
       d="m 24.331853,8.4295679 c -0.560196,1.019949 -0.667743,2.2196361 -0.828756,3.2116211 -0.177673,1.094587 -0.42039,1.936048 -0.663067,2.777547 0.536926,-0.569241 1.073693,-1.13861 1.8274,-1.700192 0.753713,-0.561581 1.724439,-1.115655 2.304647,-2.331643 0.580183,-1.2160141 0.770191,-3.0938401 0.960259,-4.9716151 -1.341963,0.811916 -2.684028,1.623756 -3.411459,2.70352 -0.06858,0.100818 -0.131026,0.205293 -0.18925,0.310558 z"
       inkscape:export-filename="/Users/rabelmarie/Documents/inkscape/inkscape/plantes.png"
       inkscape:export-xdpi="555.69"
       inkscape:export-ydpi="555.69" />
    <path
       id="path2285-1-4"
       style="display:inline;fill:#379634;fill-opacity:1;stroke:none;stroke-width:0.223582px;stroke-linecap:butt;stroke-linejoin:miter;stroke-opacity:1"
       d="m 38.276503,15.674248 c 0.48206,-0.80251 0.758866,-2.253654 0.945489,-3.25929 0.192636,-1.038073 0.289139,-1.601337 0.452265,-2.060482 0.08704,-0.244791 0.192795,-0.4598461 0.307508,-0.6611491 l 0.0026,-0.0038 0.312174,-0.503321 c -0.349158,0.142151 -0.698247,0.284493 -1.023478,0.583465 -0.325232,0.2989851 -0.625464,0.7530831 -1.315454,1.3452791 -0.689982,0.592183 -1.769019,1.321279 -2.239119,2.14626 -0.470067,0.824993 -0.331202,1.745935 -0.267311,2.373921 0.0639,0.627998 0.05239,0.9629 0.041,1.298222 0.252179,-0.09661 0.504317,-0.193044 0.997591,-0.268765 0.493275,-0.07571 1.227837,-0.130935 1.739371,-0.914824 0.01591,-0.02447 0.03163,-0.04983 0.04734,-0.07558 z"
       inkscape:export-filename="/Users/rabelmarie/Documents/inkscape/inkscape/plantes.png"
       inkscape:export-xdpi="555.69"
       inkscape:export-ydpi="555.69" />
  </g>
  <g
     inkscape:groupmode="layer"
     id="f10"
     inkscape:label="f10"
     style="display:none"
     sodipodi:insensitive="true">
    <path
       id="path2977-9-44"
       style="display:inline;fill:#379634;fill-opacity:1;stroke:none;stroke-width:0.193694px;stroke-linecap:butt;stroke-linejoin:miter;stroke-opacity:1"
       d="m 175.67456,10.538114 c -0.20884,-0.0025 -0.42265,-0.03301 -0.63467,-0.115347 -0.56538,-0.219542 -1.11826,-0.8104001 -1.67111,-1.4017291 0.6209,-0.46896 1.24167,-0.937868 1.80481,-0.952411 0.56315,-0.01453 1.06887,0.424847 1.45967,0.776446 0.11529,0.103748 0.41515,0.112543 0.53176,0.15575 0.16734,0.06207 1.15731,0.188035 0.74571,0.138608 l 1.2515,0.0571 c -0.45353,0.428199 -0.90721,0.8566791 -1.30754,1.0472371 -0.40033,0.190674 -0.74662,0.142763 -1.20902,0.194752 -0.289,0.0325 -0.62303,0.104004 -0.9711,0.09954 z"
       sodipodi:nodetypes="sscssscccsss"
       inkscape:export-filename="/Users/rabelmarie/Documents/inkscape/inkscape/plantes.png"
       inkscape:export-xdpi="555.69"
       inkscape:export-ydpi="555.69" />
    <path
       id="path2285-1-58"
       style="display:inline;fill:#379634;fill-opacity:1;stroke:none;stroke-width:0.134104px;stroke-linecap:butt;stroke-linejoin:miter;stroke-opacity:1"
       d="m 158.82797,8.6955039 c -0.47562,0.0051 -1.11661,0.371876 -1.55891,0.62954 -0.45656,0.265987 -0.70132,0.415161 -0.93196,0.485771 -0.12298,0.0376 -0.24182,0.05302 -0.35883,0.05786 h -0.002 l -0.30192,-0.0025 c 0.18137,0.1583631 0.36279,0.3166241 0.59361,0.4027971 0.23081,0.08616 0.51005,0.10018 0.9841,0.298488 0.47406,0.198333 1.14221,0.581031 1.62177,0.560957 0.47956,-0.02014 0.77054,-0.44301 0.9803,-0.712795 0.20976,-0.269797 0.33841,-0.386164 0.46717,-0.5027601 -0.12876,-0.116622 -0.25741,-0.233257 -0.46717,-0.503054 -0.20976,-0.269785 -0.50074,-0.692746 -0.9803,-0.712807 -0.015,-5.48e-4 -0.0301,-7.65e-4 -0.0455,-7.65e-4 z"
       inkscape:export-filename="/Users/rabelmarie/Documents/inkscape/inkscape/plantes.png"
       inkscape:export-xdpi="555.69"
       inkscape:export-ydpi="555.69" />
    <path
       id="path2977-9-4-7"
       style="display:inline;fill:#379634;fill-opacity:1;stroke:none;stroke-width:0.193694px;stroke-linecap:butt;stroke-linejoin:miter;stroke-opacity:1"
       d="m 131.68034,18.09441 c -0.18026,0.134427 -0.35395,0.296244 -0.50588,0.501932 -0.40512,0.548504 -0.65468,1.411352 -0.90403,2.274582 0.72165,0.01389 1.44316,0.02779 1.93758,-0.316077 0.49442,-0.343938 0.76208,-1.045466 0.96423,-1.598036 0.0596,-0.163041 0.31644,-0.36052 0.40081,-0.471853 0.12105,-0.159829 0.93114,-0.895922 0.59317,-0.592425 l 1.06392,-0.841919 c -0.5605,-0.0845 -1.12125,-0.169121 -1.54296,-0.08106 -0.42176,0.08794 -0.70363,0.348807 -1.12521,0.59644 -0.26348,0.154769 -0.58126,0.304198 -0.88161,0.528443 z"
       sodipodi:nodetypes="sscssscccsss"
       inkscape:export-filename="/Users/rabelmarie/Documents/inkscape/inkscape/plantes.png"
       inkscape:export-xdpi="555.69"
       inkscape:export-ydpi="555.69" />
    <path
       id="path1981-5-8"
       style="display:inline;fill:#379634;fill-opacity:1;stroke:none;stroke-width:0.162519px;stroke-linecap:butt;stroke-linejoin:miter;stroke-opacity:1"
       d="m 103.00608,15.052075 c 0.16773,0.08221 0.33634,0.142393 0.5008,0.173135 0.58479,0.109357 1.11866,-0.153303 1.47802,-0.277598 0.25649,-0.08871 0.42384,-0.107062 0.56581,-0.105151 l 0.14378,0.07252 c -0.0223,-0.02179 -0.0444,-0.04486 -0.0667,-0.06793 0.0287,0.0013 0.0572,0.0038 0.0853,0.0064 l -0.1447,-0.06755 c -0.10712,-0.118916 -0.22267,-0.274437 -0.36806,-0.558522 -0.20346,-0.39747 -0.4649,-1.046549 -0.95859,-1.460741 -0.49367,-0.414217 -1.21939,-0.594631 -1.84389,-0.603654 -0.62416,-0.0102 -1.14645,0.14902 -1.66902,0.308136 0.30712,0.561887 0.61401,1.123557 1.08535,1.645181 0.33877,0.374911 0.76247,0.729058 1.19108,0.939207 z"
       inkscape:export-filename="/Users/rabelmarie/Documents/inkscape/inkscape/plantes.png"
       inkscape:export-xdpi="555.69"
       inkscape:export-ydpi="555.69" />
    <path
       id="path1981-5-6"
       style="display:inline;fill:#379634;fill-opacity:1;stroke:none;stroke-width:0.215365px;stroke-linecap:butt;stroke-linejoin:miter;stroke-opacity:1"
       d="m 45.528441,6.2723849 c 0.227937,-0.08782 0.442759,-0.199684 0.634458,-0.337999 0.681597,-0.491786 1.072605,-1.319928 1.369287,-1.822446 0.211754,-0.358673 0.375128,-0.551398 0.524886,-0.696557 l 0.196514,-0.073924 c -0.03726,-2.677e-4 -0.07511,-8.413e-4 -0.113205,-0.00255 0.03108,-0.028168 0.06222,-0.055443 0.09296,-0.082336 l -0.194661,0.078513 c -0.188004,-0.01351 -0.4081,-0.056335 -0.741485,-0.2028451 -0.466478,-0.2049993 -1.154174,-0.6130987 -1.934994,-0.5347392 -0.780826,0.078258 -1.655061,0.6425792 -2.314414,1.2796652 -0.659535,0.636321 -1.104431,1.344272 -1.549633,2.052414 0.679838,0.26953 1.359332,0.539111 2.185308,0.596313 0.593667,0.04117 1.262952,-0.02753 1.845487,-0.251941 z"
       inkscape:export-filename="/Users/rabelmarie/Documents/inkscape/inkscape/plantes.png"
       inkscape:export-xdpi="555.69"
       inkscape:export-ydpi="555.69" />
  </g>
</svg>
